G75*
%MOIN*%
%OFA0B0*%
%FSLAX25Y25*%
%IPPOS*%
%LPD*%
%AMOC8*
5,1,8,0,0,1.08239X$1,22.5*
%
%ADD10C,0.02200*%
%ADD11R,0.01800X0.03000*%
%ADD12R,0.03000X0.01800*%
%ADD13C,0.02000*%
%ADD14C,0.04000*%
%ADD15C,0.00400*%
%ADD16C,0.01600*%
D10*
X0087080Y0037200D02*
X0087320Y0037200D01*
X0117200Y0032320D02*
X0117200Y0032080D01*
X0117200Y0052080D02*
X0117200Y0052320D01*
X0117320Y0072200D02*
X0117080Y0072200D01*
X0142200Y0072080D02*
X0142200Y0072320D01*
X0142200Y0052320D02*
X0142200Y0052080D01*
X0142200Y0032320D02*
X0142200Y0032080D01*
X0117200Y0142080D02*
X0117200Y0142320D01*
X0132080Y0157200D02*
X0132320Y0157200D01*
X0132200Y0177080D02*
X0132200Y0177320D01*
X0132200Y0197080D02*
X0132200Y0197320D01*
X0047200Y0227080D02*
X0047200Y0227320D01*
X0047200Y0282080D02*
X0047200Y0282320D01*
X0122200Y0287080D02*
X0122200Y0287320D01*
X0272200Y0252320D02*
X0272200Y0252080D01*
X0272200Y0212320D02*
X0272200Y0212080D01*
D11*
X0127200Y0222200D03*
X0047200Y0202200D03*
D12*
X0047200Y0177200D03*
X0047200Y0147200D03*
X0067200Y0147200D03*
X0087200Y0147200D03*
X0267200Y0177200D03*
D13*
X0273813Y0136620D02*
X0273813Y0121007D01*
X0266007Y0113200D01*
X0258200Y0121007D01*
X0258200Y0136620D01*
X0281588Y0128813D02*
X0289395Y0136620D01*
X0297201Y0128813D01*
X0297201Y0113200D01*
X0304976Y0113200D02*
X0320589Y0113200D01*
X0328364Y0117103D02*
X0332267Y0113200D01*
X0340074Y0113200D01*
X0343977Y0117103D01*
X0343977Y0136620D01*
X0351752Y0136620D02*
X0351752Y0113200D01*
X0367365Y0113200D01*
X0359559Y0124910D02*
X0351752Y0124910D01*
X0351752Y0136620D02*
X0367365Y0136620D01*
X0328364Y0136620D02*
X0328364Y0117103D01*
X0304976Y0113200D02*
X0304976Y0136620D01*
X0297201Y0124910D02*
X0281588Y0124910D01*
X0281588Y0128813D02*
X0281588Y0113200D01*
X0278813Y0283200D02*
X0278813Y0306620D01*
X0286588Y0298813D02*
X0294395Y0306620D01*
X0302201Y0298813D01*
X0302201Y0283200D01*
X0309976Y0283200D02*
X0309976Y0306620D01*
X0317783Y0298813D01*
X0325589Y0306620D01*
X0325589Y0283200D01*
X0333364Y0283200D02*
X0348977Y0283200D01*
X0341171Y0294910D02*
X0333364Y0294910D01*
X0333364Y0306620D02*
X0333364Y0283200D01*
X0333364Y0306620D02*
X0348977Y0306620D01*
X0302201Y0294910D02*
X0286588Y0294910D01*
X0286588Y0298813D02*
X0286588Y0283200D01*
X0278813Y0283200D02*
X0263200Y0306620D01*
X0263200Y0283200D01*
D14*
X0242200Y0312200D02*
X0242200Y0102200D01*
X0157200Y0102200D01*
X0157200Y0312200D01*
X0242200Y0312200D01*
D15*
X0097000Y0143885D02*
X0097000Y0140816D01*
X0092396Y0140816D01*
X0092396Y0143885D01*
X0094698Y0142350D02*
X0094698Y0140816D01*
X0096233Y0139281D02*
X0092396Y0139281D01*
X0092396Y0136212D02*
X0096233Y0136212D01*
X0097000Y0136979D01*
X0097000Y0138514D01*
X0096233Y0139281D01*
X0097000Y0134677D02*
X0097000Y0131608D01*
X0092396Y0131608D01*
X0093931Y0130073D02*
X0097000Y0130073D01*
X0094698Y0130073D02*
X0094698Y0127004D01*
X0093931Y0127004D02*
X0092396Y0128539D01*
X0093931Y0130073D01*
X0093931Y0127004D02*
X0097000Y0127004D01*
X0095465Y0125469D02*
X0097000Y0123935D01*
X0095465Y0122400D01*
X0092396Y0122400D01*
X0092396Y0125469D02*
X0095465Y0125469D01*
X0067000Y0125073D02*
X0063931Y0125073D01*
X0062396Y0123539D01*
X0063931Y0122004D01*
X0067000Y0122004D01*
X0067000Y0120469D02*
X0062396Y0120469D01*
X0064698Y0122004D02*
X0064698Y0125073D01*
X0062396Y0126608D02*
X0063931Y0128142D01*
X0062396Y0129677D01*
X0067000Y0129677D01*
X0067000Y0131212D02*
X0062396Y0131212D01*
X0062396Y0134281D01*
X0064698Y0132746D02*
X0064698Y0131212D01*
X0067000Y0131212D02*
X0067000Y0134281D01*
X0067000Y0126608D02*
X0062396Y0126608D01*
X0067000Y0120469D02*
X0062396Y0117400D01*
X0067000Y0117400D01*
D16*
X0065704Y0111334D02*
X0097200Y0111334D01*
X0097200Y0077869D01*
X0065704Y0077869D01*
X0065704Y0082594D01*
X0065704Y0082987D01*
X0065704Y0111334D01*
M02*
