G75*
%MOIN*%
%OFA0B0*%
%FSLAX25Y25*%
%IPPOS*%
%LPD*%
%AMOC8*
5,1,8,0,0,1.08239X$1,22.5*
%
%ADD10R,0.05131X0.04737*%
%ADD11R,0.04737X0.05131*%
%ADD12R,0.08400X0.04600*%
%ADD13R,0.07400X0.04000*%
%ADD14R,0.04600X0.08400*%
%ADD15R,0.02800X0.04800*%
%ADD16R,0.05550X0.05550*%
D10*
X0113854Y0032200D03*
X0120546Y0032200D03*
X0138854Y0032200D03*
X0145546Y0032200D03*
X0145546Y0052200D03*
X0138854Y0052200D03*
X0120546Y0052200D03*
X0113854Y0052200D03*
X0138854Y0072200D03*
X0145546Y0072200D03*
X0120546Y0142200D03*
X0113854Y0142200D03*
X0128854Y0177200D03*
X0135546Y0177200D03*
X0135546Y0197200D03*
X0128854Y0197200D03*
X0130546Y0222200D03*
X0123854Y0222200D03*
X0125546Y0287200D03*
X0118854Y0287200D03*
X0050546Y0282200D03*
X0043854Y0282200D03*
X0043854Y0227200D03*
X0050546Y0227200D03*
X0050546Y0202200D03*
X0043854Y0202200D03*
X0268854Y0212200D03*
X0275546Y0212200D03*
X0275546Y0252200D03*
X0268854Y0252200D03*
D11*
X0267200Y0180546D03*
X0267200Y0173854D03*
X0132200Y0160546D03*
X0132200Y0153854D03*
X0087200Y0150546D03*
X0087200Y0143854D03*
X0067200Y0143854D03*
X0067200Y0150546D03*
X0047200Y0150546D03*
X0047200Y0143854D03*
X0047200Y0173854D03*
X0047200Y0180546D03*
X0117200Y0075546D03*
X0117200Y0068854D03*
X0087200Y0040546D03*
X0087200Y0033854D03*
D12*
X0171137Y0120389D03*
X0171137Y0137515D03*
X0171137Y0147515D03*
X0171137Y0164641D03*
X0171137Y0174641D03*
X0171137Y0184641D03*
X0171137Y0194641D03*
X0171137Y0203578D03*
X0171137Y0223893D03*
X0171137Y0243893D03*
X0171137Y0253893D03*
X0171137Y0263893D03*
X0171137Y0287830D03*
X0223893Y0287830D03*
X0224523Y0256294D03*
X0223893Y0244956D03*
X0223893Y0234956D03*
X0223893Y0224956D03*
X0223893Y0184641D03*
X0223893Y0174641D03*
X0223893Y0147515D03*
X0223893Y0139011D03*
X0223263Y0120704D03*
D13*
X0171137Y0233893D03*
D14*
X0186137Y0109326D03*
X0194326Y0109326D03*
X0202515Y0109326D03*
X0210704Y0109326D03*
D15*
X0092200Y0107200D03*
X0082200Y0107200D03*
X0072200Y0106806D03*
X0072200Y0082200D03*
X0082200Y0082200D03*
X0092200Y0082200D03*
D16*
X0042200Y0077200D03*
X0127200Y0062200D03*
X0132200Y0042200D03*
X0167200Y0087200D03*
X0142200Y0102200D03*
X0147200Y0132200D03*
X0142200Y0142200D03*
X0187200Y0127200D03*
X0197200Y0137200D03*
X0142200Y0197200D03*
X0142200Y0207200D03*
X0107200Y0197200D03*
X0067200Y0217200D03*
X0072200Y0267200D03*
X0127200Y0242200D03*
X0252200Y0237200D03*
X0257200Y0292200D03*
X0287200Y0292200D03*
M02*
