G75*
%MOIN*%
%OFA0B0*%
%FSLAX25Y25*%
%IPPOS*%
%LPD*%
%AMOC8*
5,1,8,0,0,1.08239X$1,22.5*
%
%ADD10C,0.00000*%
%ADD11R,0.04331X0.03937*%
%ADD12R,0.03937X0.04331*%
%ADD13R,0.07600X0.03800*%
%ADD14R,0.06600X0.03200*%
%ADD15R,0.03800X0.07600*%
%ADD16R,0.02000X0.04000*%
%ADD17C,0.03200*%
%ADD18R,0.04750X0.04750*%
%ADD19C,0.00100*%
%ADD20C,0.02400*%
D10*
X0002200Y0002200D02*
X0002200Y0342200D01*
X0297200Y0342200D01*
X0297200Y0002200D01*
X0002200Y0002200D01*
D11*
X0113854Y0032200D03*
X0120546Y0032200D03*
X0138854Y0032200D03*
X0145546Y0032200D03*
X0145546Y0052200D03*
X0138854Y0052200D03*
X0120546Y0052200D03*
X0113854Y0052200D03*
X0138854Y0072200D03*
X0145546Y0072200D03*
X0120546Y0142200D03*
X0113854Y0142200D03*
X0128854Y0177200D03*
X0135546Y0177200D03*
X0135546Y0197200D03*
X0128854Y0197200D03*
X0130546Y0222200D03*
X0123854Y0222200D03*
X0125546Y0287200D03*
X0118854Y0287200D03*
X0050546Y0282200D03*
X0043854Y0282200D03*
X0043854Y0227200D03*
X0050546Y0227200D03*
X0050546Y0202200D03*
X0043854Y0202200D03*
X0268854Y0212200D03*
X0275546Y0212200D03*
X0275546Y0252200D03*
X0268854Y0252200D03*
D12*
X0267200Y0180546D03*
X0267200Y0173854D03*
X0132200Y0160546D03*
X0132200Y0153854D03*
X0087200Y0150546D03*
X0087200Y0143854D03*
X0067200Y0143854D03*
X0067200Y0150546D03*
X0047200Y0150546D03*
X0047200Y0143854D03*
X0047200Y0173854D03*
X0047200Y0180546D03*
X0117200Y0075546D03*
X0117200Y0068854D03*
X0087200Y0040546D03*
X0087200Y0033854D03*
D13*
X0171137Y0120389D03*
X0171137Y0137515D03*
X0171137Y0147515D03*
X0171137Y0164641D03*
X0171137Y0174641D03*
X0171137Y0184641D03*
X0171137Y0194641D03*
X0171137Y0203578D03*
X0171137Y0223893D03*
X0171137Y0243893D03*
X0171137Y0253893D03*
X0171137Y0263893D03*
X0171137Y0287830D03*
X0223893Y0287830D03*
X0224523Y0256294D03*
X0223893Y0244956D03*
X0223893Y0234956D03*
X0223893Y0224956D03*
X0223893Y0184641D03*
X0223893Y0174641D03*
X0223893Y0147515D03*
X0223893Y0139011D03*
X0223263Y0120704D03*
D14*
X0171137Y0233893D03*
D15*
X0186137Y0109326D03*
X0194326Y0109326D03*
X0202515Y0109326D03*
X0210704Y0109326D03*
D16*
X0092200Y0107200D03*
X0082200Y0107200D03*
X0072200Y0106806D03*
X0072200Y0082200D03*
X0082200Y0082200D03*
X0092200Y0082200D03*
D17*
X0092200Y0072200D01*
X0082200Y0062200D01*
X0037200Y0062200D01*
X0017200Y0082200D01*
X0017200Y0287200D01*
X0032200Y0302200D01*
X0112200Y0302200D01*
X0118854Y0295546D01*
X0118854Y0287200D01*
X0125546Y0287200D02*
X0152200Y0287200D01*
X0152200Y0257200D01*
X0155507Y0253893D01*
X0171137Y0253893D01*
X0173893Y0253893D01*
X0187200Y0267200D01*
X0187200Y0317200D01*
X0202200Y0332200D01*
X0272200Y0332200D01*
X0272200Y0272200D01*
X0277200Y0267200D01*
X0277200Y0253854D01*
X0275546Y0252200D01*
X0275546Y0212200D01*
X0268854Y0212200D02*
X0267200Y0210546D01*
X0267200Y0202200D01*
X0277200Y0192200D01*
X0277200Y0177200D01*
X0273854Y0173854D01*
X0267200Y0173854D01*
X0267200Y0092200D01*
X0262200Y0087200D01*
X0202200Y0087200D01*
X0202515Y0087515D01*
X0202515Y0109326D01*
X0197200Y0106452D02*
X0194326Y0109326D01*
X0197200Y0106452D02*
X0197200Y0087200D01*
X0202200Y0087200D01*
X0187200Y0107200D02*
X0167200Y0087200D01*
X0142200Y0087200D01*
X0142200Y0080546D01*
X0138854Y0072200D01*
X0132200Y0072200D01*
X0127200Y0077200D01*
X0118854Y0077200D01*
X0117200Y0075546D01*
X0113854Y0078893D01*
X0113854Y0142200D01*
X0120546Y0142200D02*
X0120546Y0103854D01*
X0122200Y0102200D01*
X0142200Y0102200D01*
X0142200Y0142200D01*
X0152200Y0142200D01*
X0152200Y0137200D01*
X0147200Y0132200D01*
X0172200Y0132200D01*
X0172200Y0136452D01*
X0171137Y0137515D01*
X0171452Y0147200D02*
X0171137Y0147515D01*
X0171452Y0147200D02*
X0172200Y0147200D01*
X0171452Y0147200D02*
X0157200Y0147200D01*
X0152200Y0142200D01*
X0147200Y0147200D01*
X0147200Y0152200D01*
X0142200Y0157200D01*
X0142200Y0197200D01*
X0135546Y0197200D01*
X0128854Y0197200D02*
X0107200Y0197200D01*
X0092200Y0212200D01*
X0092200Y0262200D01*
X0187200Y0262200D01*
X0212200Y0237200D01*
X0212200Y0052200D01*
X0207200Y0047200D01*
X0162200Y0047200D01*
X0157200Y0042200D01*
X0132200Y0042200D01*
X0132200Y0052200D01*
X0120546Y0052200D01*
X0120546Y0032200D01*
X0113854Y0032200D02*
X0107200Y0032200D01*
X0105546Y0033854D01*
X0087200Y0033854D01*
X0087200Y0040546D02*
X0075546Y0040546D01*
X0072200Y0037200D01*
X0072200Y0022200D01*
X0252200Y0022200D01*
X0287200Y0057200D01*
X0287200Y0292200D01*
X0257200Y0292200D01*
X0257200Y0272200D01*
X0242200Y0257200D01*
X0225428Y0257200D01*
X0224523Y0256294D01*
X0232200Y0257200D02*
X0252200Y0237200D01*
X0252200Y0227200D01*
X0247200Y0222200D01*
X0226649Y0222200D01*
X0223893Y0224956D01*
X0192200Y0232200D02*
X0192200Y0142200D01*
X0197200Y0137200D01*
X0222082Y0137200D01*
X0223893Y0139011D01*
X0252200Y0139011D01*
X0252200Y0177200D01*
X0258854Y0177200D01*
X0267200Y0180546D01*
X0268854Y0212200D02*
X0268854Y0252200D01*
X0232200Y0257200D02*
X0232200Y0297200D01*
X0212200Y0317200D01*
X0082200Y0317200D01*
X0072200Y0307200D01*
X0072200Y0267200D01*
X0050546Y0245546D01*
X0050546Y0227200D01*
X0057200Y0227200D01*
X0067200Y0217200D01*
X0067200Y0142200D01*
X0037200Y0112200D01*
X0037200Y0082200D01*
X0042200Y0077200D01*
X0067200Y0077200D01*
X0072200Y0082200D01*
X0082200Y0082200D02*
X0087200Y0087200D01*
X0087200Y0143854D01*
X0087200Y0150546D02*
X0067200Y0150546D01*
X0047200Y0150546D01*
X0047200Y0173854D01*
X0042200Y0192200D02*
X0032200Y0192200D01*
X0027200Y0187200D01*
X0027200Y0157200D01*
X0032200Y0152200D01*
X0045546Y0152200D01*
X0047200Y0150546D01*
X0047200Y0143854D02*
X0047200Y0117200D01*
X0057200Y0107200D01*
X0071806Y0107200D01*
X0072200Y0106806D01*
X0082200Y0107200D02*
X0082200Y0117200D01*
X0067200Y0132200D01*
X0067200Y0143854D01*
X0087200Y0150546D02*
X0093854Y0150546D01*
X0097200Y0147200D01*
X0097200Y0112200D01*
X0092200Y0107200D01*
X0105546Y0075546D02*
X0102200Y0072200D01*
X0102200Y0052200D01*
X0113854Y0052200D01*
X0113854Y0032200D01*
X0138854Y0032200D02*
X0138854Y0052200D01*
X0138854Y0072200D01*
X0145546Y0072200D02*
X0145546Y0052200D01*
X0145546Y0032200D01*
X0127200Y0062200D02*
X0122200Y0062200D01*
X0117200Y0067200D01*
X0117200Y0068854D01*
X0117200Y0075546D02*
X0105546Y0075546D01*
X0127200Y0062200D02*
X0127200Y0197200D01*
X0142200Y0207200D01*
X0167515Y0207200D01*
X0171137Y0203578D01*
X0171137Y0194641D02*
X0168696Y0192200D01*
X0147200Y0192200D01*
X0135546Y0180546D01*
X0135546Y0177200D01*
X0128854Y0177200D02*
X0128854Y0197200D01*
X0127200Y0200546D01*
X0127200Y0207200D01*
X0148893Y0223893D01*
X0171137Y0223893D01*
X0171137Y0233893D02*
X0148893Y0233893D01*
X0137200Y0222200D01*
X0130546Y0222200D01*
X0123854Y0222200D02*
X0123854Y0238854D01*
X0127200Y0242200D01*
X0182200Y0242200D01*
X0192200Y0232200D01*
X0197200Y0272200D02*
X0197200Y0152200D01*
X0187200Y0142200D01*
X0187200Y0127200D01*
X0187200Y0107200D01*
X0171137Y0120389D02*
X0167948Y0117200D01*
X0142200Y0117200D01*
X0132200Y0127200D01*
X0132200Y0153854D01*
X0132200Y0160546D02*
X0128854Y0163893D01*
X0128854Y0177200D01*
X0133854Y0162200D02*
X0132200Y0160546D01*
X0133854Y0162200D02*
X0142200Y0162200D01*
X0147200Y0167200D01*
X0147200Y0172200D01*
X0149641Y0174641D01*
X0171137Y0174641D01*
X0123854Y0222200D02*
X0107200Y0222200D01*
X0087200Y0202200D01*
X0050546Y0202200D01*
X0043854Y0202200D02*
X0043854Y0193854D01*
X0042200Y0192200D01*
X0043854Y0202200D02*
X0043854Y0227200D01*
X0032200Y0227200D01*
X0032200Y0277200D01*
X0037200Y0282200D01*
X0043854Y0282200D01*
X0043854Y0288854D01*
X0047200Y0292200D01*
X0087200Y0292200D01*
X0107200Y0272200D01*
X0122200Y0272200D01*
X0127200Y0277200D01*
X0127200Y0285546D01*
X0125546Y0287200D01*
X0152200Y0287200D02*
X0170507Y0287200D01*
X0171137Y0287830D01*
X0197200Y0272200D02*
X0212830Y0287830D01*
X0223893Y0287830D01*
X0050546Y0282200D02*
X0050546Y0227200D01*
D18*
X0067200Y0217200D03*
X0107200Y0197200D03*
X0142200Y0197200D03*
X0142200Y0207200D03*
X0127200Y0242200D03*
X0072200Y0267200D03*
X0142200Y0142200D03*
X0147200Y0132200D03*
X0142200Y0102200D03*
X0167200Y0087200D03*
X0127200Y0062200D03*
X0132200Y0042200D03*
X0042200Y0077200D03*
X0187200Y0127200D03*
X0197200Y0137200D03*
X0252200Y0237200D03*
X0257200Y0292200D03*
X0287200Y0292200D03*
D19*
X0287200Y0296200D01*
X0291200Y0292200D01*
X0287200Y0288200D01*
X0283200Y0292200D01*
X0287200Y0296200D01*
X0257200Y0296200D02*
X0257200Y0292200D01*
X0257200Y0296200D02*
X0261200Y0292200D01*
X0257200Y0288200D01*
X0253200Y0292200D01*
X0257200Y0296200D01*
X0252200Y0241200D02*
X0252200Y0237200D01*
X0252200Y0241200D02*
X0256200Y0237200D01*
X0252200Y0233200D01*
X0248200Y0237200D01*
X0252200Y0241200D01*
X0142200Y0211200D02*
X0142200Y0207200D01*
X0142200Y0211200D02*
X0146200Y0207200D01*
X0142200Y0203200D01*
X0138200Y0207200D01*
X0142200Y0211200D01*
X0142200Y0201200D02*
X0142200Y0197200D01*
X0142200Y0201200D02*
X0146200Y0197200D01*
X0142200Y0193200D01*
X0138200Y0197200D01*
X0142200Y0201200D01*
X0107200Y0201200D02*
X0107200Y0197200D01*
X0107200Y0201200D02*
X0111200Y0197200D01*
X0107200Y0193200D01*
X0103200Y0197200D01*
X0107200Y0201200D01*
X0067200Y0217200D02*
X0067200Y0221200D01*
X0071200Y0217200D01*
X0067200Y0213200D01*
X0063200Y0217200D01*
X0067200Y0221200D01*
X0072200Y0267200D02*
X0072200Y0271200D01*
X0076200Y0267200D01*
X0072200Y0263200D01*
X0068200Y0267200D01*
X0072200Y0271200D01*
X0127200Y0246200D02*
X0127200Y0242200D01*
X0127200Y0246200D02*
X0131200Y0242200D01*
X0127200Y0238200D01*
X0123200Y0242200D01*
X0127200Y0246200D01*
X0142200Y0146200D02*
X0142200Y0142200D01*
X0142200Y0146200D02*
X0146200Y0142200D01*
X0142200Y0138200D01*
X0138200Y0142200D01*
X0142200Y0146200D01*
X0147200Y0136200D02*
X0147200Y0132200D01*
X0147200Y0136200D02*
X0151200Y0132200D01*
X0147200Y0128200D01*
X0143200Y0132200D01*
X0147200Y0136200D01*
X0142200Y0106200D02*
X0142200Y0102200D01*
X0142200Y0106200D02*
X0146200Y0102200D01*
X0142200Y0098200D01*
X0138200Y0102200D01*
X0142200Y0106200D01*
X0167200Y0091200D02*
X0167200Y0087200D01*
X0167200Y0091200D02*
X0171200Y0087200D01*
X0167200Y0083200D01*
X0163200Y0087200D01*
X0167200Y0091200D01*
X0187200Y0127200D02*
X0187200Y0131200D01*
X0191200Y0127200D01*
X0187200Y0123200D01*
X0183200Y0127200D01*
X0187200Y0131200D01*
X0197200Y0137200D02*
X0197200Y0141200D01*
X0201200Y0137200D01*
X0197200Y0133200D01*
X0193200Y0137200D01*
X0197200Y0141200D01*
X0127200Y0066200D02*
X0127200Y0062200D01*
X0127200Y0066200D02*
X0131200Y0062200D01*
X0127200Y0058200D01*
X0123200Y0062200D01*
X0127200Y0066200D01*
X0132200Y0046200D02*
X0132200Y0042200D01*
X0132200Y0046200D02*
X0136200Y0042200D01*
X0132200Y0038200D01*
X0128200Y0042200D01*
X0132200Y0046200D01*
X0042200Y0077200D02*
X0042200Y0081200D01*
X0046200Y0077200D01*
X0042200Y0073200D01*
X0038200Y0077200D01*
X0042200Y0081200D01*
D20*
X0045403Y0081575D02*
X0046178Y0080800D01*
X0065709Y0080800D01*
X0069200Y0084291D01*
X0069200Y0085028D01*
X0070372Y0086200D01*
X0074028Y0086200D01*
X0075200Y0085028D01*
X0075200Y0084291D01*
X0075252Y0084239D01*
X0075800Y0082916D01*
X0075800Y0081484D01*
X0075252Y0080161D01*
X0075200Y0080109D01*
X0075200Y0079372D01*
X0074028Y0078200D01*
X0073291Y0078200D01*
X0069239Y0074148D01*
X0067916Y0073600D01*
X0046178Y0073600D01*
X0045403Y0072825D01*
X0038997Y0072825D01*
X0037825Y0073997D01*
X0037825Y0080403D01*
X0038997Y0081575D01*
X0045403Y0081575D01*
X0037825Y0079561D02*
X0024930Y0079561D01*
X0027328Y0077163D02*
X0037825Y0077163D01*
X0037825Y0074764D02*
X0029727Y0074764D01*
X0032125Y0072366D02*
X0087275Y0072366D01*
X0088600Y0073691D02*
X0080709Y0065800D01*
X0038691Y0065800D01*
X0020800Y0083691D01*
X0020800Y0285709D01*
X0033691Y0298600D01*
X0110709Y0298600D01*
X0115254Y0294055D01*
X0115254Y0290562D01*
X0114688Y0289997D01*
X0114688Y0284403D01*
X0115860Y0283231D01*
X0121847Y0283231D01*
X0122200Y0283584D01*
X0122553Y0283231D01*
X0123600Y0283231D01*
X0123600Y0278691D01*
X0120709Y0275800D01*
X0108691Y0275800D01*
X0089239Y0295252D01*
X0087916Y0295800D01*
X0046484Y0295800D01*
X0045161Y0295252D01*
X0044148Y0294239D01*
X0040802Y0290893D01*
X0040254Y0289570D01*
X0040254Y0285800D01*
X0036484Y0285800D01*
X0035161Y0285252D01*
X0030161Y0280252D01*
X0029148Y0279239D01*
X0028600Y0277916D01*
X0028600Y0226484D01*
X0029148Y0225161D01*
X0030161Y0224148D01*
X0031484Y0223600D01*
X0040254Y0223600D01*
X0040254Y0205562D01*
X0039688Y0204997D01*
X0039688Y0199403D01*
X0040254Y0198838D01*
X0040254Y0195800D01*
X0031484Y0195800D01*
X0030161Y0195252D01*
X0025161Y0190252D01*
X0024148Y0189239D01*
X0023600Y0187916D01*
X0023600Y0156484D01*
X0024148Y0155161D01*
X0029148Y0150161D01*
X0030161Y0149148D01*
X0031484Y0148600D01*
X0043231Y0148600D01*
X0043231Y0147553D01*
X0043584Y0147200D01*
X0043231Y0146847D01*
X0043231Y0140860D01*
X0043600Y0140491D01*
X0043600Y0116484D01*
X0044148Y0115161D01*
X0054148Y0105161D01*
X0055161Y0104148D01*
X0056484Y0103600D01*
X0069578Y0103600D01*
X0070372Y0102806D01*
X0074028Y0102806D01*
X0075200Y0103978D01*
X0075200Y0104715D01*
X0075252Y0104767D01*
X0075800Y0106090D01*
X0075800Y0107522D01*
X0075252Y0108846D01*
X0075200Y0108897D01*
X0075200Y0109635D01*
X0074028Y0110806D01*
X0070372Y0110806D01*
X0070365Y0110800D01*
X0058691Y0110800D01*
X0050800Y0118691D01*
X0050800Y0140491D01*
X0051168Y0140860D01*
X0051168Y0146847D01*
X0051069Y0146946D01*
X0063331Y0146946D01*
X0063231Y0146847D01*
X0063231Y0140860D01*
X0063600Y0140491D01*
X0063600Y0131484D01*
X0064148Y0130161D01*
X0078600Y0115709D01*
X0078600Y0106484D01*
X0079148Y0105161D01*
X0079200Y0105109D01*
X0079200Y0104372D01*
X0080372Y0103200D01*
X0083600Y0103200D01*
X0083600Y0088691D01*
X0081109Y0086200D01*
X0080372Y0086200D01*
X0079200Y0085028D01*
X0079200Y0084291D01*
X0079148Y0084239D01*
X0078600Y0082916D01*
X0078600Y0081484D01*
X0079148Y0080161D01*
X0079200Y0080109D01*
X0079200Y0079372D01*
X0080372Y0078200D01*
X0084028Y0078200D01*
X0085200Y0079372D01*
X0085200Y0080109D01*
X0089019Y0083928D01*
X0088600Y0082916D01*
X0088600Y0073691D01*
X0088600Y0074764D02*
X0069855Y0074764D01*
X0072254Y0077163D02*
X0088600Y0077163D01*
X0088600Y0079561D02*
X0085200Y0079561D01*
X0087051Y0081960D02*
X0088600Y0081960D01*
X0094028Y0086200D02*
X0095200Y0085028D01*
X0095200Y0084291D01*
X0095252Y0084239D01*
X0095800Y0082916D01*
X0095800Y0071484D01*
X0095252Y0070161D01*
X0094239Y0069148D01*
X0084239Y0059148D01*
X0082916Y0058600D01*
X0036484Y0058600D01*
X0035161Y0059148D01*
X0034148Y0060161D01*
X0014148Y0080161D01*
X0013600Y0081484D01*
X0013600Y0287916D01*
X0014148Y0289239D01*
X0015161Y0290252D01*
X0030161Y0305252D01*
X0031484Y0305800D01*
X0112916Y0305800D01*
X0114239Y0305252D01*
X0115252Y0304239D01*
X0121905Y0297586D01*
X0122454Y0296263D01*
X0122454Y0291069D01*
X0122553Y0291168D01*
X0128540Y0291168D01*
X0128909Y0290800D01*
X0165579Y0290800D01*
X0166509Y0291730D01*
X0175765Y0291730D01*
X0176937Y0290558D01*
X0176937Y0285101D01*
X0175765Y0283930D01*
X0172020Y0283930D01*
X0171223Y0283600D01*
X0155800Y0283600D01*
X0155800Y0258691D01*
X0156998Y0257493D01*
X0166209Y0257493D01*
X0166509Y0257793D01*
X0172702Y0257793D01*
X0174902Y0259993D01*
X0166509Y0259993D01*
X0165337Y0261164D01*
X0165337Y0266621D01*
X0166509Y0267793D01*
X0175765Y0267793D01*
X0176937Y0266621D01*
X0176937Y0262028D01*
X0183600Y0268691D01*
X0183600Y0317916D01*
X0184148Y0319239D01*
X0199148Y0334239D01*
X0200161Y0335252D01*
X0201484Y0335800D01*
X0272916Y0335800D01*
X0274239Y0335252D01*
X0275252Y0334239D01*
X0275800Y0332916D01*
X0275800Y0273691D01*
X0279239Y0270252D01*
X0280252Y0269239D01*
X0280800Y0267916D01*
X0280800Y0253137D01*
X0280252Y0251814D01*
X0279712Y0251274D01*
X0279712Y0249403D01*
X0279146Y0248838D01*
X0279146Y0215562D01*
X0279712Y0214997D01*
X0279712Y0209403D01*
X0278540Y0208231D01*
X0272553Y0208231D01*
X0272200Y0208584D01*
X0271847Y0208231D01*
X0270800Y0208231D01*
X0270800Y0203691D01*
X0280252Y0194239D01*
X0280800Y0192916D01*
X0280800Y0176484D01*
X0280252Y0175161D01*
X0279239Y0174148D01*
X0275893Y0170802D01*
X0274570Y0170254D01*
X0270800Y0170254D01*
X0270800Y0091484D01*
X0270252Y0090161D01*
X0265252Y0085161D01*
X0264239Y0084148D01*
X0262916Y0083600D01*
X0196484Y0083600D01*
X0195161Y0084148D01*
X0194148Y0085161D01*
X0193600Y0086484D01*
X0193600Y0103526D01*
X0191598Y0103526D01*
X0190426Y0104698D01*
X0190426Y0113954D01*
X0191598Y0115126D01*
X0197054Y0115126D01*
X0198226Y0113954D01*
X0198226Y0110517D01*
X0198615Y0110128D01*
X0198615Y0113954D01*
X0199787Y0115126D01*
X0205243Y0115126D01*
X0206415Y0113954D01*
X0206415Y0104698D01*
X0206115Y0104398D01*
X0206115Y0090800D01*
X0260709Y0090800D01*
X0263600Y0093691D01*
X0263600Y0170491D01*
X0263231Y0170860D01*
X0263231Y0175077D01*
X0260212Y0173866D01*
X0259570Y0173600D01*
X0259548Y0173600D01*
X0259529Y0173592D01*
X0258833Y0173600D01*
X0255800Y0173600D01*
X0255800Y0138295D01*
X0255252Y0136972D01*
X0254239Y0135959D01*
X0252916Y0135411D01*
X0228821Y0135411D01*
X0228521Y0135111D01*
X0225084Y0135111D01*
X0224121Y0134148D01*
X0222798Y0133600D01*
X0201178Y0133600D01*
X0200403Y0132825D01*
X0193997Y0132825D01*
X0192825Y0133997D01*
X0192825Y0140403D01*
X0193997Y0141575D01*
X0200403Y0141575D01*
X0201178Y0140800D01*
X0218093Y0140800D01*
X0218093Y0141739D01*
X0219264Y0142911D01*
X0228521Y0142911D01*
X0228821Y0142611D01*
X0248600Y0142611D01*
X0248600Y0177916D01*
X0249148Y0179239D01*
X0250161Y0180252D01*
X0251484Y0180800D01*
X0258159Y0180800D01*
X0263231Y0182834D01*
X0263231Y0183540D01*
X0264403Y0184712D01*
X0269997Y0184712D01*
X0271168Y0183540D01*
X0271168Y0177553D01*
X0271069Y0177454D01*
X0272362Y0177454D01*
X0273600Y0178691D01*
X0273600Y0190709D01*
X0265161Y0199148D01*
X0264148Y0200161D01*
X0263600Y0201484D01*
X0263600Y0211263D01*
X0264148Y0212586D01*
X0264688Y0213126D01*
X0264688Y0214997D01*
X0265254Y0215562D01*
X0265254Y0248838D01*
X0264688Y0249403D01*
X0264688Y0254997D01*
X0265860Y0256168D01*
X0271847Y0256168D01*
X0272200Y0255816D01*
X0272553Y0256168D01*
X0273600Y0256168D01*
X0273600Y0265709D01*
X0269148Y0270161D01*
X0268600Y0271484D01*
X0268600Y0328600D01*
X0203691Y0328600D01*
X0190800Y0315709D01*
X0190800Y0266484D01*
X0190252Y0265161D01*
X0189239Y0264148D01*
X0189239Y0264148D01*
X0176937Y0251846D01*
X0176937Y0251164D01*
X0175765Y0249993D01*
X0166509Y0249993D01*
X0166209Y0250293D01*
X0154791Y0250293D01*
X0153468Y0250841D01*
X0150161Y0254148D01*
X0149148Y0255161D01*
X0148600Y0256484D01*
X0148600Y0283600D01*
X0130800Y0283600D01*
X0130800Y0276484D01*
X0130252Y0275161D01*
X0129239Y0274148D01*
X0124239Y0269148D01*
X0122916Y0268600D01*
X0106484Y0268600D01*
X0105161Y0269148D01*
X0104148Y0270161D01*
X0085709Y0288600D01*
X0048691Y0288600D01*
X0047454Y0287362D01*
X0047454Y0286069D01*
X0047553Y0286168D01*
X0053540Y0286168D01*
X0054712Y0284997D01*
X0054712Y0279403D01*
X0054146Y0278838D01*
X0054146Y0254238D01*
X0067825Y0267916D01*
X0067825Y0270403D01*
X0068997Y0271575D01*
X0075403Y0271575D01*
X0076575Y0270403D01*
X0076575Y0263997D01*
X0075403Y0262825D01*
X0072916Y0262825D01*
X0054146Y0244055D01*
X0054146Y0230800D01*
X0057916Y0230800D01*
X0059239Y0230252D01*
X0067916Y0221575D01*
X0070403Y0221575D01*
X0071575Y0220403D01*
X0071575Y0213997D01*
X0070403Y0212825D01*
X0063997Y0212825D01*
X0062825Y0213997D01*
X0062825Y0216484D01*
X0055709Y0223600D01*
X0053909Y0223600D01*
X0053540Y0223231D01*
X0047553Y0223231D01*
X0047454Y0223331D01*
X0047454Y0206069D01*
X0047553Y0206168D01*
X0053540Y0206168D01*
X0053909Y0205800D01*
X0085709Y0205800D01*
X0104148Y0224239D01*
X0105161Y0225252D01*
X0106484Y0225800D01*
X0120254Y0225800D01*
X0120254Y0239570D01*
X0120802Y0240893D01*
X0122825Y0242916D01*
X0122825Y0245403D01*
X0123997Y0246575D01*
X0130403Y0246575D01*
X0131575Y0245403D01*
X0131575Y0238997D01*
X0130403Y0237825D01*
X0127916Y0237825D01*
X0127454Y0237362D01*
X0127454Y0226069D01*
X0127553Y0226168D01*
X0133540Y0226168D01*
X0133909Y0225800D01*
X0135709Y0225800D01*
X0146854Y0236945D01*
X0148177Y0237493D01*
X0175265Y0237493D01*
X0176437Y0236321D01*
X0176437Y0231464D01*
X0175265Y0230293D01*
X0150384Y0230293D01*
X0147277Y0227186D01*
X0147731Y0227308D01*
X0148177Y0227493D01*
X0148416Y0227493D01*
X0148648Y0227555D01*
X0149126Y0227493D01*
X0166209Y0227493D01*
X0166509Y0227793D01*
X0175765Y0227793D01*
X0176937Y0226621D01*
X0176937Y0221164D01*
X0175765Y0219993D01*
X0166509Y0219993D01*
X0166209Y0220293D01*
X0150118Y0220293D01*
X0130800Y0205428D01*
X0130800Y0201387D01*
X0130908Y0201168D01*
X0131847Y0201168D01*
X0132200Y0200816D01*
X0132553Y0201168D01*
X0138540Y0201168D01*
X0138565Y0201143D01*
X0138997Y0201575D01*
X0145403Y0201575D01*
X0146575Y0200403D01*
X0146575Y0195800D01*
X0165337Y0195800D01*
X0165337Y0197369D01*
X0166509Y0198541D01*
X0175765Y0198541D01*
X0176937Y0197369D01*
X0176937Y0191913D01*
X0175765Y0190741D01*
X0172328Y0190741D01*
X0170735Y0189148D01*
X0169412Y0188600D01*
X0148691Y0188600D01*
X0139712Y0179621D01*
X0139712Y0174403D01*
X0138540Y0173231D01*
X0132553Y0173231D01*
X0132454Y0173331D01*
X0132454Y0165517D01*
X0133137Y0165800D01*
X0140709Y0165800D01*
X0143600Y0168691D01*
X0143600Y0172916D01*
X0144148Y0174239D01*
X0145161Y0175252D01*
X0147602Y0177693D01*
X0148925Y0178241D01*
X0166209Y0178241D01*
X0166509Y0178541D01*
X0175765Y0178541D01*
X0176937Y0177369D01*
X0176937Y0171913D01*
X0175765Y0170741D01*
X0166509Y0170741D01*
X0166209Y0171041D01*
X0151132Y0171041D01*
X0150800Y0170709D01*
X0150800Y0166484D01*
X0150252Y0165161D01*
X0145252Y0160161D01*
X0144239Y0159148D01*
X0142916Y0158600D01*
X0136168Y0158600D01*
X0136168Y0157553D01*
X0135816Y0157200D01*
X0136168Y0156847D01*
X0136168Y0150860D01*
X0135800Y0150491D01*
X0135800Y0128691D01*
X0143691Y0120800D01*
X0165337Y0120800D01*
X0165337Y0123117D01*
X0166509Y0124289D01*
X0175765Y0124289D01*
X0176937Y0123117D01*
X0176937Y0117661D01*
X0175765Y0116489D01*
X0172328Y0116489D01*
X0169987Y0114148D01*
X0168664Y0113600D01*
X0141484Y0113600D01*
X0140161Y0114148D01*
X0139148Y0115161D01*
X0129148Y0125161D01*
X0128600Y0126484D01*
X0128600Y0150491D01*
X0128231Y0150860D01*
X0128231Y0156847D01*
X0128584Y0157200D01*
X0128231Y0157553D01*
X0128231Y0159424D01*
X0125802Y0161854D01*
X0125254Y0163177D01*
X0125254Y0173838D01*
X0124688Y0174403D01*
X0124688Y0179997D01*
X0125254Y0180562D01*
X0125254Y0193600D01*
X0111178Y0193600D01*
X0110403Y0192825D01*
X0103997Y0192825D01*
X0102825Y0193997D01*
X0102825Y0200403D01*
X0103997Y0201575D01*
X0110403Y0201575D01*
X0111178Y0200800D01*
X0123575Y0200800D01*
X0123560Y0201023D01*
X0123600Y0201139D01*
X0123600Y0206724D01*
X0123538Y0206955D01*
X0123600Y0207433D01*
X0123600Y0207916D01*
X0123692Y0208137D01*
X0123723Y0208375D01*
X0123963Y0208793D01*
X0124148Y0209239D01*
X0124318Y0209409D01*
X0124437Y0209616D01*
X0124819Y0209911D01*
X0125161Y0210252D01*
X0125382Y0210344D01*
X0136112Y0218600D01*
X0133909Y0218600D01*
X0133540Y0218231D01*
X0127553Y0218231D01*
X0127200Y0218584D01*
X0126847Y0218231D01*
X0120860Y0218231D01*
X0120491Y0218600D01*
X0108691Y0218600D01*
X0089239Y0199148D01*
X0087916Y0198600D01*
X0053909Y0198600D01*
X0053540Y0198231D01*
X0047553Y0198231D01*
X0047454Y0198331D01*
X0047454Y0193137D01*
X0046905Y0191814D01*
X0045252Y0190161D01*
X0044239Y0189148D01*
X0042916Y0188600D01*
X0033691Y0188600D01*
X0030800Y0185709D01*
X0030800Y0158691D01*
X0033691Y0155800D01*
X0043600Y0155800D01*
X0043600Y0170491D01*
X0043231Y0170860D01*
X0043231Y0176847D01*
X0043584Y0177200D01*
X0043231Y0177553D01*
X0043231Y0183540D01*
X0044403Y0184712D01*
X0049997Y0184712D01*
X0051168Y0183540D01*
X0051168Y0177553D01*
X0050816Y0177200D01*
X0051168Y0176847D01*
X0051168Y0170860D01*
X0050800Y0170491D01*
X0050800Y0154146D01*
X0063838Y0154146D01*
X0064403Y0154712D01*
X0069997Y0154712D01*
X0070562Y0154146D01*
X0083838Y0154146D01*
X0084403Y0154712D01*
X0089997Y0154712D01*
X0090562Y0154146D01*
X0094570Y0154146D01*
X0095893Y0153598D01*
X0099239Y0150252D01*
X0100252Y0149239D01*
X0100800Y0147916D01*
X0100800Y0111484D01*
X0100252Y0110161D01*
X0095200Y0105109D01*
X0095200Y0104372D01*
X0094028Y0103200D01*
X0090800Y0103200D01*
X0090800Y0086484D01*
X0090682Y0086200D01*
X0094028Y0086200D01*
X0095200Y0084358D02*
X0110254Y0084358D01*
X0110254Y0081960D02*
X0095800Y0081960D01*
X0095800Y0079561D02*
X0110254Y0079561D01*
X0110254Y0079146D02*
X0104830Y0079146D01*
X0103507Y0078598D01*
X0100161Y0075252D01*
X0099148Y0074239D01*
X0098600Y0072916D01*
X0098600Y0051484D01*
X0099148Y0050161D01*
X0100161Y0049148D01*
X0101484Y0048600D01*
X0110254Y0048600D01*
X0110254Y0035800D01*
X0108691Y0035800D01*
X0107586Y0036905D01*
X0106263Y0037454D01*
X0091069Y0037454D01*
X0091168Y0037553D01*
X0091168Y0043540D01*
X0089997Y0044712D01*
X0084403Y0044712D01*
X0083838Y0044146D01*
X0074830Y0044146D01*
X0073507Y0043598D01*
X0070161Y0040252D01*
X0069148Y0039239D01*
X0068600Y0037916D01*
X0068600Y0021484D01*
X0069148Y0020161D01*
X0070161Y0019148D01*
X0071484Y0018600D01*
X0252916Y0018600D01*
X0254239Y0019148D01*
X0289239Y0054148D01*
X0290252Y0055161D01*
X0290800Y0056484D01*
X0290800Y0288222D01*
X0291575Y0288997D01*
X0291575Y0295403D01*
X0290403Y0296575D01*
X0283997Y0296575D01*
X0282825Y0295403D01*
X0282825Y0288997D01*
X0283600Y0288222D01*
X0283600Y0058691D01*
X0250709Y0025800D01*
X0075800Y0025800D01*
X0075800Y0035709D01*
X0077038Y0036946D01*
X0083331Y0036946D01*
X0083231Y0036847D01*
X0083231Y0030860D01*
X0084403Y0029688D01*
X0089997Y0029688D01*
X0090562Y0030254D01*
X0104055Y0030254D01*
X0104148Y0030161D01*
X0105161Y0029148D01*
X0106484Y0028600D01*
X0110491Y0028600D01*
X0110860Y0028231D01*
X0116847Y0028231D01*
X0117200Y0028584D01*
X0117553Y0028231D01*
X0123540Y0028231D01*
X0124712Y0029403D01*
X0124712Y0034997D01*
X0124146Y0035562D01*
X0124146Y0048600D01*
X0128600Y0048600D01*
X0128600Y0046178D01*
X0127825Y0045403D01*
X0127825Y0038997D01*
X0128997Y0037825D01*
X0135254Y0037825D01*
X0135254Y0035562D01*
X0134688Y0034997D01*
X0134688Y0029403D01*
X0135860Y0028231D01*
X0141847Y0028231D01*
X0142200Y0028584D01*
X0142553Y0028231D01*
X0148540Y0028231D01*
X0149712Y0029403D01*
X0149712Y0034997D01*
X0149146Y0035562D01*
X0149146Y0048838D01*
X0149712Y0049403D01*
X0149712Y0054997D01*
X0149146Y0055562D01*
X0149146Y0068838D01*
X0149712Y0069403D01*
X0149712Y0074997D01*
X0148540Y0076168D01*
X0144323Y0076168D01*
X0145534Y0079187D01*
X0145800Y0079830D01*
X0145800Y0079852D01*
X0145808Y0079871D01*
X0145800Y0080566D01*
X0145800Y0083600D01*
X0163222Y0083600D01*
X0163997Y0082825D01*
X0170403Y0082825D01*
X0171575Y0083997D01*
X0171575Y0090403D01*
X0170403Y0091575D01*
X0163997Y0091575D01*
X0163222Y0090800D01*
X0141484Y0090800D01*
X0140161Y0090252D01*
X0139148Y0089239D01*
X0138600Y0087916D01*
X0138600Y0081241D01*
X0136566Y0076168D01*
X0135860Y0076168D01*
X0135491Y0075800D01*
X0133691Y0075800D01*
X0130252Y0079239D01*
X0129239Y0080252D01*
X0127916Y0080800D01*
X0118137Y0080800D01*
X0117454Y0080517D01*
X0117454Y0101913D01*
X0117495Y0101814D01*
X0119148Y0100161D01*
X0120161Y0099148D01*
X0121484Y0098600D01*
X0138222Y0098600D01*
X0138997Y0097825D01*
X0145403Y0097825D01*
X0146575Y0098997D01*
X0146575Y0105403D01*
X0145403Y0106575D01*
X0138997Y0106575D01*
X0138222Y0105800D01*
X0124146Y0105800D01*
X0124146Y0138838D01*
X0124712Y0139403D01*
X0124712Y0144997D01*
X0123540Y0146168D01*
X0117553Y0146168D01*
X0117200Y0145816D01*
X0116847Y0146168D01*
X0110860Y0146168D01*
X0109688Y0144997D01*
X0109688Y0139403D01*
X0110254Y0138838D01*
X0110254Y0079146D01*
X0117454Y0081960D02*
X0138600Y0081960D01*
X0138600Y0084358D02*
X0117454Y0084358D01*
X0117454Y0086757D02*
X0138600Y0086757D01*
X0139113Y0089155D02*
X0117454Y0089155D01*
X0117454Y0091554D02*
X0163976Y0091554D01*
X0170424Y0091554D02*
X0193600Y0091554D01*
X0193600Y0093952D02*
X0117454Y0093952D01*
X0117454Y0096351D02*
X0193600Y0096351D01*
X0193600Y0098749D02*
X0146327Y0098749D01*
X0146575Y0101148D02*
X0193600Y0101148D01*
X0191577Y0103546D02*
X0188886Y0103546D01*
X0188865Y0103526D02*
X0190037Y0104698D01*
X0190037Y0113954D01*
X0188865Y0115126D01*
X0183409Y0115126D01*
X0182237Y0113954D01*
X0182237Y0104698D01*
X0183409Y0103526D01*
X0188865Y0103526D01*
X0190037Y0105945D02*
X0190426Y0105945D01*
X0190426Y0108343D02*
X0190037Y0108343D01*
X0190037Y0110742D02*
X0190426Y0110742D01*
X0190426Y0113140D02*
X0190037Y0113140D01*
X0182237Y0113140D02*
X0124146Y0113140D01*
X0124146Y0110742D02*
X0182237Y0110742D01*
X0182237Y0108343D02*
X0124146Y0108343D01*
X0124146Y0105945D02*
X0138367Y0105945D01*
X0146033Y0105945D02*
X0182237Y0105945D01*
X0183388Y0103546D02*
X0146575Y0103546D01*
X0138770Y0115539D02*
X0124146Y0115539D01*
X0124146Y0117937D02*
X0136371Y0117937D01*
X0133973Y0120336D02*
X0124146Y0120336D01*
X0124146Y0122734D02*
X0131574Y0122734D01*
X0129176Y0125133D02*
X0124146Y0125133D01*
X0124146Y0127532D02*
X0128600Y0127532D01*
X0128600Y0129930D02*
X0124146Y0129930D01*
X0124146Y0132329D02*
X0128600Y0132329D01*
X0128600Y0134727D02*
X0124146Y0134727D01*
X0124146Y0137126D02*
X0128600Y0137126D01*
X0128600Y0139524D02*
X0124712Y0139524D01*
X0124712Y0141923D02*
X0128600Y0141923D01*
X0128600Y0144321D02*
X0124712Y0144321D01*
X0128600Y0146720D02*
X0100800Y0146720D01*
X0100800Y0144321D02*
X0109688Y0144321D01*
X0109688Y0141923D02*
X0100800Y0141923D01*
X0100800Y0139524D02*
X0109688Y0139524D01*
X0110254Y0137126D02*
X0100800Y0137126D01*
X0100800Y0134727D02*
X0110254Y0134727D01*
X0110254Y0132329D02*
X0100800Y0132329D01*
X0100800Y0129930D02*
X0110254Y0129930D01*
X0110254Y0127532D02*
X0100800Y0127532D01*
X0100800Y0125133D02*
X0110254Y0125133D01*
X0110254Y0122734D02*
X0100800Y0122734D01*
X0100800Y0120336D02*
X0110254Y0120336D01*
X0110254Y0117937D02*
X0100800Y0117937D01*
X0100800Y0115539D02*
X0110254Y0115539D01*
X0110254Y0113140D02*
X0100800Y0113140D01*
X0100493Y0110742D02*
X0110254Y0110742D01*
X0110254Y0108343D02*
X0098435Y0108343D01*
X0096036Y0105945D02*
X0110254Y0105945D01*
X0110254Y0103546D02*
X0094375Y0103546D01*
X0090800Y0101148D02*
X0110254Y0101148D01*
X0110254Y0098749D02*
X0090800Y0098749D01*
X0090800Y0096351D02*
X0110254Y0096351D01*
X0110254Y0093952D02*
X0090800Y0093952D01*
X0090800Y0091554D02*
X0110254Y0091554D01*
X0110254Y0089155D02*
X0090800Y0089155D01*
X0090800Y0086757D02*
X0110254Y0086757D01*
X0102072Y0077163D02*
X0095800Y0077163D01*
X0095800Y0074764D02*
X0099673Y0074764D01*
X0098600Y0072366D02*
X0095800Y0072366D01*
X0095058Y0069967D02*
X0098600Y0069967D01*
X0098600Y0067569D02*
X0092660Y0067569D01*
X0090261Y0065170D02*
X0098600Y0065170D01*
X0098600Y0062772D02*
X0087863Y0062772D01*
X0085464Y0060373D02*
X0098600Y0060373D01*
X0098600Y0057975D02*
X0007400Y0057975D01*
X0007400Y0060373D02*
X0033936Y0060373D01*
X0031537Y0062772D02*
X0007400Y0062772D01*
X0007400Y0065170D02*
X0029139Y0065170D01*
X0026740Y0067569D02*
X0007400Y0067569D01*
X0007400Y0069967D02*
X0024342Y0069967D01*
X0021943Y0072366D02*
X0007400Y0072366D01*
X0007400Y0074764D02*
X0019545Y0074764D01*
X0017146Y0077163D02*
X0007400Y0077163D01*
X0007400Y0079561D02*
X0014748Y0079561D01*
X0013600Y0081960D02*
X0007400Y0081960D01*
X0007400Y0084358D02*
X0013600Y0084358D01*
X0013600Y0086757D02*
X0007400Y0086757D01*
X0007400Y0089155D02*
X0013600Y0089155D01*
X0013600Y0091554D02*
X0007400Y0091554D01*
X0007400Y0093952D02*
X0013600Y0093952D01*
X0013600Y0096351D02*
X0007400Y0096351D01*
X0007400Y0098749D02*
X0013600Y0098749D01*
X0013600Y0101148D02*
X0007400Y0101148D01*
X0007400Y0103546D02*
X0013600Y0103546D01*
X0013600Y0105945D02*
X0007400Y0105945D01*
X0007400Y0108343D02*
X0013600Y0108343D01*
X0013600Y0110742D02*
X0007400Y0110742D01*
X0007400Y0113140D02*
X0013600Y0113140D01*
X0013600Y0115539D02*
X0007400Y0115539D01*
X0007400Y0117937D02*
X0013600Y0117937D01*
X0013600Y0120336D02*
X0007400Y0120336D01*
X0007400Y0122734D02*
X0013600Y0122734D01*
X0013600Y0125133D02*
X0007400Y0125133D01*
X0007400Y0127532D02*
X0013600Y0127532D01*
X0013600Y0129930D02*
X0007400Y0129930D01*
X0007400Y0132329D02*
X0013600Y0132329D01*
X0013600Y0134727D02*
X0007400Y0134727D01*
X0007400Y0137126D02*
X0013600Y0137126D01*
X0013600Y0139524D02*
X0007400Y0139524D01*
X0007400Y0141923D02*
X0013600Y0141923D01*
X0013600Y0144321D02*
X0007400Y0144321D01*
X0007400Y0146720D02*
X0013600Y0146720D01*
X0013600Y0149118D02*
X0007400Y0149118D01*
X0007400Y0151517D02*
X0013600Y0151517D01*
X0013600Y0153915D02*
X0007400Y0153915D01*
X0007400Y0156314D02*
X0013600Y0156314D01*
X0013600Y0158712D02*
X0007400Y0158712D01*
X0007400Y0161111D02*
X0013600Y0161111D01*
X0013600Y0163509D02*
X0007400Y0163509D01*
X0007400Y0165908D02*
X0013600Y0165908D01*
X0013600Y0168306D02*
X0007400Y0168306D01*
X0007400Y0170705D02*
X0013600Y0170705D01*
X0013600Y0173103D02*
X0007400Y0173103D01*
X0007400Y0175502D02*
X0013600Y0175502D01*
X0013600Y0177900D02*
X0007400Y0177900D01*
X0007400Y0180299D02*
X0013600Y0180299D01*
X0013600Y0182697D02*
X0007400Y0182697D01*
X0007400Y0185096D02*
X0013600Y0185096D01*
X0013600Y0187494D02*
X0007400Y0187494D01*
X0007400Y0189893D02*
X0013600Y0189893D01*
X0013600Y0192291D02*
X0007400Y0192291D01*
X0007400Y0194690D02*
X0013600Y0194690D01*
X0013600Y0197088D02*
X0007400Y0197088D01*
X0007400Y0199487D02*
X0013600Y0199487D01*
X0013600Y0201885D02*
X0007400Y0201885D01*
X0007400Y0204284D02*
X0013600Y0204284D01*
X0013600Y0206682D02*
X0007400Y0206682D01*
X0007400Y0209081D02*
X0013600Y0209081D01*
X0013600Y0211479D02*
X0007400Y0211479D01*
X0007400Y0213878D02*
X0013600Y0213878D01*
X0013600Y0216276D02*
X0007400Y0216276D01*
X0007400Y0218675D02*
X0013600Y0218675D01*
X0013600Y0221073D02*
X0007400Y0221073D01*
X0007400Y0223472D02*
X0013600Y0223472D01*
X0013600Y0225870D02*
X0007400Y0225870D01*
X0007400Y0228269D02*
X0013600Y0228269D01*
X0013600Y0230668D02*
X0007400Y0230668D01*
X0007400Y0233066D02*
X0013600Y0233066D01*
X0013600Y0235465D02*
X0007400Y0235465D01*
X0007400Y0237863D02*
X0013600Y0237863D01*
X0013600Y0240262D02*
X0007400Y0240262D01*
X0007400Y0242660D02*
X0013600Y0242660D01*
X0013600Y0245059D02*
X0007400Y0245059D01*
X0007400Y0247457D02*
X0013600Y0247457D01*
X0013600Y0249856D02*
X0007400Y0249856D01*
X0007400Y0252254D02*
X0013600Y0252254D01*
X0013600Y0254653D02*
X0007400Y0254653D01*
X0007400Y0257051D02*
X0013600Y0257051D01*
X0013600Y0259450D02*
X0007400Y0259450D01*
X0007400Y0261848D02*
X0013600Y0261848D01*
X0013600Y0264247D02*
X0007400Y0264247D01*
X0007400Y0266645D02*
X0013600Y0266645D01*
X0013600Y0269044D02*
X0007400Y0269044D01*
X0007400Y0271442D02*
X0013600Y0271442D01*
X0013600Y0273841D02*
X0007400Y0273841D01*
X0007400Y0276239D02*
X0013600Y0276239D01*
X0013600Y0278638D02*
X0007400Y0278638D01*
X0007400Y0281036D02*
X0013600Y0281036D01*
X0013600Y0283435D02*
X0007400Y0283435D01*
X0007400Y0285833D02*
X0013600Y0285833D01*
X0013731Y0288232D02*
X0007400Y0288232D01*
X0007400Y0290630D02*
X0015539Y0290630D01*
X0017938Y0293029D02*
X0007400Y0293029D01*
X0007400Y0295427D02*
X0020336Y0295427D01*
X0022735Y0297826D02*
X0007400Y0297826D01*
X0007400Y0300224D02*
X0025133Y0300224D01*
X0027532Y0302623D02*
X0007400Y0302623D01*
X0007400Y0305021D02*
X0029930Y0305021D01*
X0032917Y0297826D02*
X0111483Y0297826D01*
X0113882Y0295427D02*
X0088816Y0295427D01*
X0091462Y0293029D02*
X0115254Y0293029D01*
X0115254Y0290630D02*
X0093861Y0290630D01*
X0096259Y0288232D02*
X0114688Y0288232D01*
X0114688Y0285833D02*
X0098658Y0285833D01*
X0101056Y0283435D02*
X0115656Y0283435D01*
X0122051Y0283435D02*
X0122349Y0283435D01*
X0123600Y0281036D02*
X0103455Y0281036D01*
X0105853Y0278638D02*
X0123547Y0278638D01*
X0121148Y0276239D02*
X0108252Y0276239D01*
X0102867Y0271442D02*
X0075536Y0271442D01*
X0076575Y0269044D02*
X0105413Y0269044D01*
X0100468Y0273841D02*
X0054146Y0273841D01*
X0054146Y0276239D02*
X0098070Y0276239D01*
X0095671Y0278638D02*
X0054146Y0278638D01*
X0054712Y0281036D02*
X0093273Y0281036D01*
X0090874Y0283435D02*
X0054712Y0283435D01*
X0053875Y0285833D02*
X0088476Y0285833D01*
X0086077Y0288232D02*
X0048323Y0288232D01*
X0042938Y0293029D02*
X0028120Y0293029D01*
X0030518Y0295427D02*
X0045584Y0295427D01*
X0040693Y0290630D02*
X0025721Y0290630D01*
X0023323Y0288232D02*
X0040254Y0288232D01*
X0040254Y0285833D02*
X0020924Y0285833D01*
X0020800Y0283435D02*
X0033344Y0283435D01*
X0030945Y0281036D02*
X0020800Y0281036D01*
X0020800Y0278638D02*
X0028899Y0278638D01*
X0028600Y0276239D02*
X0020800Y0276239D01*
X0020800Y0273841D02*
X0028600Y0273841D01*
X0028600Y0271442D02*
X0020800Y0271442D01*
X0020800Y0269044D02*
X0028600Y0269044D01*
X0028600Y0266645D02*
X0020800Y0266645D01*
X0020800Y0264247D02*
X0028600Y0264247D01*
X0028600Y0261848D02*
X0020800Y0261848D01*
X0020800Y0259450D02*
X0028600Y0259450D01*
X0028600Y0257051D02*
X0020800Y0257051D01*
X0020800Y0254653D02*
X0028600Y0254653D01*
X0028600Y0252254D02*
X0020800Y0252254D01*
X0020800Y0249856D02*
X0028600Y0249856D01*
X0028600Y0247457D02*
X0020800Y0247457D01*
X0020800Y0245059D02*
X0028600Y0245059D01*
X0028600Y0242660D02*
X0020800Y0242660D01*
X0020800Y0240262D02*
X0028600Y0240262D01*
X0028600Y0237863D02*
X0020800Y0237863D01*
X0020800Y0235465D02*
X0028600Y0235465D01*
X0028600Y0233066D02*
X0020800Y0233066D01*
X0020800Y0230668D02*
X0028600Y0230668D01*
X0028600Y0228269D02*
X0020800Y0228269D01*
X0020800Y0225870D02*
X0028854Y0225870D01*
X0020800Y0223472D02*
X0040254Y0223472D01*
X0040254Y0221073D02*
X0020800Y0221073D01*
X0020800Y0218675D02*
X0040254Y0218675D01*
X0040254Y0216276D02*
X0020800Y0216276D01*
X0020800Y0213878D02*
X0040254Y0213878D01*
X0040254Y0211479D02*
X0020800Y0211479D01*
X0020800Y0209081D02*
X0040254Y0209081D01*
X0040254Y0206682D02*
X0020800Y0206682D01*
X0020800Y0204284D02*
X0039688Y0204284D01*
X0039688Y0201885D02*
X0020800Y0201885D01*
X0020800Y0199487D02*
X0039688Y0199487D01*
X0040254Y0197088D02*
X0020800Y0197088D01*
X0020800Y0194690D02*
X0029599Y0194690D01*
X0027200Y0192291D02*
X0020800Y0192291D01*
X0020800Y0189893D02*
X0024802Y0189893D01*
X0023600Y0187494D02*
X0020800Y0187494D01*
X0020800Y0185096D02*
X0023600Y0185096D01*
X0023600Y0182697D02*
X0020800Y0182697D01*
X0020800Y0180299D02*
X0023600Y0180299D01*
X0023600Y0177900D02*
X0020800Y0177900D01*
X0020800Y0175502D02*
X0023600Y0175502D01*
X0023600Y0173103D02*
X0020800Y0173103D01*
X0020800Y0170705D02*
X0023600Y0170705D01*
X0023600Y0168306D02*
X0020800Y0168306D01*
X0020800Y0165908D02*
X0023600Y0165908D01*
X0023600Y0163509D02*
X0020800Y0163509D01*
X0020800Y0161111D02*
X0023600Y0161111D01*
X0023600Y0158712D02*
X0020800Y0158712D01*
X0020800Y0156314D02*
X0023671Y0156314D01*
X0025394Y0153915D02*
X0020800Y0153915D01*
X0020800Y0151517D02*
X0027792Y0151517D01*
X0030233Y0149118D02*
X0020800Y0149118D01*
X0020800Y0146720D02*
X0043231Y0146720D01*
X0043231Y0144321D02*
X0020800Y0144321D01*
X0020800Y0141923D02*
X0043231Y0141923D01*
X0043600Y0139524D02*
X0020800Y0139524D01*
X0020800Y0137126D02*
X0043600Y0137126D01*
X0043600Y0134727D02*
X0020800Y0134727D01*
X0020800Y0132329D02*
X0043600Y0132329D01*
X0043600Y0129930D02*
X0020800Y0129930D01*
X0020800Y0127532D02*
X0043600Y0127532D01*
X0043600Y0125133D02*
X0020800Y0125133D01*
X0020800Y0122734D02*
X0043600Y0122734D01*
X0043600Y0120336D02*
X0020800Y0120336D01*
X0020800Y0117937D02*
X0043600Y0117937D01*
X0043991Y0115539D02*
X0020800Y0115539D01*
X0020800Y0113140D02*
X0046168Y0113140D01*
X0048567Y0110742D02*
X0020800Y0110742D01*
X0020800Y0108343D02*
X0050965Y0108343D01*
X0053364Y0105945D02*
X0020800Y0105945D01*
X0020800Y0103546D02*
X0069631Y0103546D01*
X0074769Y0103546D02*
X0080025Y0103546D01*
X0078823Y0105945D02*
X0075740Y0105945D01*
X0075460Y0108343D02*
X0078600Y0108343D01*
X0078600Y0110742D02*
X0074093Y0110742D01*
X0078600Y0113140D02*
X0056351Y0113140D01*
X0053952Y0115539D02*
X0078600Y0115539D01*
X0076371Y0117937D02*
X0051554Y0117937D01*
X0050800Y0120336D02*
X0073973Y0120336D01*
X0071574Y0122734D02*
X0050800Y0122734D01*
X0050800Y0125133D02*
X0069176Y0125133D01*
X0066777Y0127532D02*
X0050800Y0127532D01*
X0050800Y0129930D02*
X0064379Y0129930D01*
X0063600Y0132329D02*
X0050800Y0132329D01*
X0050800Y0134727D02*
X0063600Y0134727D01*
X0063600Y0137126D02*
X0050800Y0137126D01*
X0050800Y0139524D02*
X0063600Y0139524D01*
X0063231Y0141923D02*
X0051168Y0141923D01*
X0051168Y0144321D02*
X0063231Y0144321D01*
X0063231Y0146720D02*
X0051168Y0146720D01*
X0050800Y0156314D02*
X0128231Y0156314D01*
X0128231Y0158712D02*
X0050800Y0158712D01*
X0050800Y0161111D02*
X0126545Y0161111D01*
X0125254Y0163509D02*
X0050800Y0163509D01*
X0050800Y0165908D02*
X0125254Y0165908D01*
X0125254Y0168306D02*
X0050800Y0168306D01*
X0051013Y0170705D02*
X0125254Y0170705D01*
X0125254Y0173103D02*
X0051168Y0173103D01*
X0051168Y0175502D02*
X0124688Y0175502D01*
X0124688Y0177900D02*
X0051168Y0177900D01*
X0051168Y0180299D02*
X0124990Y0180299D01*
X0125254Y0182697D02*
X0051168Y0182697D01*
X0043231Y0182697D02*
X0030800Y0182697D01*
X0030800Y0180299D02*
X0043231Y0180299D01*
X0043231Y0177900D02*
X0030800Y0177900D01*
X0030800Y0175502D02*
X0043231Y0175502D01*
X0043231Y0173103D02*
X0030800Y0173103D01*
X0030800Y0170705D02*
X0043387Y0170705D01*
X0043600Y0168306D02*
X0030800Y0168306D01*
X0030800Y0165908D02*
X0043600Y0165908D01*
X0043600Y0163509D02*
X0030800Y0163509D01*
X0030800Y0161111D02*
X0043600Y0161111D01*
X0043600Y0158712D02*
X0030800Y0158712D01*
X0033177Y0156314D02*
X0043600Y0156314D01*
X0071069Y0146946D02*
X0083331Y0146946D01*
X0083231Y0146847D01*
X0083231Y0140860D01*
X0083600Y0140491D01*
X0083600Y0120891D01*
X0070800Y0133691D01*
X0070800Y0140491D01*
X0071168Y0140860D01*
X0071168Y0146847D01*
X0071069Y0146946D01*
X0071168Y0146720D02*
X0083231Y0146720D01*
X0083231Y0144321D02*
X0071168Y0144321D01*
X0071168Y0141923D02*
X0083231Y0141923D01*
X0083600Y0139524D02*
X0070800Y0139524D01*
X0070800Y0137126D02*
X0083600Y0137126D01*
X0083600Y0134727D02*
X0070800Y0134727D01*
X0072163Y0132329D02*
X0083600Y0132329D01*
X0083600Y0129930D02*
X0074561Y0129930D01*
X0076960Y0127532D02*
X0083600Y0127532D01*
X0083600Y0125133D02*
X0079358Y0125133D01*
X0081757Y0122734D02*
X0083600Y0122734D01*
X0090800Y0122734D02*
X0093600Y0122734D01*
X0093600Y0120336D02*
X0090800Y0120336D01*
X0090800Y0117937D02*
X0093600Y0117937D01*
X0093600Y0115539D02*
X0090800Y0115539D01*
X0090800Y0113140D02*
X0093049Y0113140D01*
X0093600Y0113691D02*
X0091109Y0111200D01*
X0090800Y0111200D01*
X0090800Y0140491D01*
X0091168Y0140860D01*
X0091168Y0146847D01*
X0091069Y0146946D01*
X0092362Y0146946D01*
X0093600Y0145709D01*
X0093600Y0113691D01*
X0093600Y0125133D02*
X0090800Y0125133D01*
X0090800Y0127532D02*
X0093600Y0127532D01*
X0093600Y0129930D02*
X0090800Y0129930D01*
X0090800Y0132329D02*
X0093600Y0132329D01*
X0093600Y0134727D02*
X0090800Y0134727D01*
X0090800Y0137126D02*
X0093600Y0137126D01*
X0093600Y0139524D02*
X0090800Y0139524D01*
X0091168Y0141923D02*
X0093600Y0141923D01*
X0093600Y0144321D02*
X0091168Y0144321D01*
X0091168Y0146720D02*
X0092589Y0146720D01*
X0097975Y0151517D02*
X0128231Y0151517D01*
X0128231Y0153915D02*
X0095128Y0153915D01*
X0100302Y0149118D02*
X0128600Y0149118D01*
X0135800Y0149118D02*
X0154027Y0149118D01*
X0154148Y0149239D02*
X0150709Y0145800D01*
X0146178Y0145800D01*
X0145403Y0146575D01*
X0138997Y0146575D01*
X0137825Y0145403D01*
X0137825Y0138997D01*
X0138997Y0137825D01*
X0145403Y0137825D01*
X0146178Y0138600D01*
X0152916Y0138600D01*
X0154239Y0139148D01*
X0158691Y0143600D01*
X0172916Y0143600D01*
X0172952Y0143615D01*
X0175765Y0143615D01*
X0176937Y0144787D01*
X0176937Y0150243D01*
X0175765Y0151415D01*
X0166509Y0151415D01*
X0165894Y0150800D01*
X0156484Y0150800D01*
X0155161Y0150252D01*
X0154148Y0149239D01*
X0151628Y0146720D02*
X0135800Y0146720D01*
X0135800Y0144321D02*
X0137825Y0144321D01*
X0137825Y0141923D02*
X0135800Y0141923D01*
X0135800Y0139524D02*
X0137825Y0139524D01*
X0135800Y0137126D02*
X0165337Y0137126D01*
X0165337Y0135800D02*
X0151178Y0135800D01*
X0150403Y0136575D01*
X0143997Y0136575D01*
X0142825Y0135403D01*
X0142825Y0128997D01*
X0143997Y0127825D01*
X0150403Y0127825D01*
X0151178Y0128600D01*
X0172916Y0128600D01*
X0174239Y0129148D01*
X0175252Y0130161D01*
X0175800Y0131484D01*
X0175800Y0133650D01*
X0176937Y0134787D01*
X0176937Y0140243D01*
X0175765Y0141415D01*
X0166509Y0141415D01*
X0165337Y0140243D01*
X0165337Y0135800D01*
X0165337Y0139524D02*
X0154615Y0139524D01*
X0157014Y0141923D02*
X0183600Y0141923D01*
X0183600Y0142916D02*
X0183600Y0131178D01*
X0182825Y0130403D01*
X0182825Y0123997D01*
X0183997Y0122825D01*
X0190403Y0122825D01*
X0191575Y0123997D01*
X0191575Y0130403D01*
X0190800Y0131178D01*
X0190800Y0140709D01*
X0200252Y0150161D01*
X0200800Y0151484D01*
X0200800Y0270709D01*
X0214321Y0284230D01*
X0218964Y0284230D01*
X0219264Y0283930D01*
X0228521Y0283930D01*
X0229693Y0285101D01*
X0229693Y0290558D01*
X0228521Y0291730D01*
X0219264Y0291730D01*
X0218964Y0291430D01*
X0212114Y0291430D01*
X0210791Y0290882D01*
X0195161Y0275252D01*
X0194148Y0274239D01*
X0193600Y0272916D01*
X0193600Y0153691D01*
X0185161Y0145252D01*
X0184148Y0144239D01*
X0183600Y0142916D01*
X0184230Y0144321D02*
X0176472Y0144321D01*
X0176937Y0146720D02*
X0186628Y0146720D01*
X0189027Y0149118D02*
X0176937Y0149118D01*
X0176937Y0139524D02*
X0183600Y0139524D01*
X0183600Y0137126D02*
X0176937Y0137126D01*
X0176878Y0134727D02*
X0183600Y0134727D01*
X0183600Y0132329D02*
X0175800Y0132329D01*
X0175021Y0129930D02*
X0182825Y0129930D01*
X0182825Y0127532D02*
X0136960Y0127532D01*
X0135800Y0129930D02*
X0142825Y0129930D01*
X0142825Y0132329D02*
X0135800Y0132329D01*
X0135800Y0134727D02*
X0142825Y0134727D01*
X0139358Y0125133D02*
X0182825Y0125133D01*
X0176937Y0122734D02*
X0217463Y0122734D01*
X0217463Y0123432D02*
X0217463Y0117976D01*
X0218635Y0116804D01*
X0227891Y0116804D01*
X0229063Y0117976D01*
X0229063Y0123432D01*
X0227891Y0124604D01*
X0218635Y0124604D01*
X0217463Y0123432D01*
X0217463Y0120336D02*
X0176937Y0120336D01*
X0176937Y0117937D02*
X0217501Y0117937D01*
X0214604Y0113954D02*
X0213432Y0115126D01*
X0207976Y0115126D01*
X0206804Y0113954D01*
X0206804Y0104698D01*
X0207976Y0103526D01*
X0213432Y0103526D01*
X0214604Y0104698D01*
X0214604Y0113954D01*
X0214604Y0113140D02*
X0263600Y0113140D01*
X0263600Y0110742D02*
X0214604Y0110742D01*
X0214604Y0108343D02*
X0263600Y0108343D01*
X0263600Y0105945D02*
X0214604Y0105945D01*
X0213453Y0103546D02*
X0263600Y0103546D01*
X0263600Y0101148D02*
X0206115Y0101148D01*
X0206115Y0103546D02*
X0207955Y0103546D01*
X0206804Y0105945D02*
X0206415Y0105945D01*
X0206415Y0108343D02*
X0206804Y0108343D01*
X0206804Y0110742D02*
X0206415Y0110742D01*
X0206415Y0113140D02*
X0206804Y0113140D01*
X0198615Y0113140D02*
X0198226Y0113140D01*
X0198226Y0110742D02*
X0198615Y0110742D01*
X0206115Y0098749D02*
X0263600Y0098749D01*
X0263600Y0096351D02*
X0206115Y0096351D01*
X0206115Y0093952D02*
X0263600Y0093952D01*
X0261463Y0091554D02*
X0206115Y0091554D01*
X0193600Y0089155D02*
X0171575Y0089155D01*
X0171575Y0086757D02*
X0193600Y0086757D01*
X0194951Y0084358D02*
X0171575Y0084358D01*
X0149712Y0074764D02*
X0283600Y0074764D01*
X0283600Y0072366D02*
X0149712Y0072366D01*
X0149712Y0069967D02*
X0283600Y0069967D01*
X0283600Y0067569D02*
X0149146Y0067569D01*
X0149146Y0065170D02*
X0283600Y0065170D01*
X0283600Y0062772D02*
X0149146Y0062772D01*
X0149146Y0060373D02*
X0283600Y0060373D01*
X0282884Y0057975D02*
X0149146Y0057975D01*
X0149146Y0055576D02*
X0280485Y0055576D01*
X0278087Y0053178D02*
X0149712Y0053178D01*
X0149712Y0050779D02*
X0275688Y0050779D01*
X0273289Y0048381D02*
X0149146Y0048381D01*
X0149146Y0045982D02*
X0270891Y0045982D01*
X0268492Y0043584D02*
X0149146Y0043584D01*
X0149146Y0041185D02*
X0266094Y0041185D01*
X0263695Y0038787D02*
X0149146Y0038787D01*
X0149146Y0036388D02*
X0261297Y0036388D01*
X0258898Y0033990D02*
X0149712Y0033990D01*
X0149712Y0031591D02*
X0256500Y0031591D01*
X0254101Y0029193D02*
X0149501Y0029193D01*
X0134899Y0029193D02*
X0124501Y0029193D01*
X0124712Y0031591D02*
X0134688Y0031591D01*
X0134688Y0033990D02*
X0124712Y0033990D01*
X0124146Y0036388D02*
X0135254Y0036388D01*
X0128035Y0038787D02*
X0124146Y0038787D01*
X0124146Y0041185D02*
X0127825Y0041185D01*
X0127825Y0043584D02*
X0124146Y0043584D01*
X0124146Y0045982D02*
X0128404Y0045982D01*
X0128600Y0048381D02*
X0124146Y0048381D01*
X0123909Y0055800D02*
X0123540Y0056168D01*
X0117553Y0056168D01*
X0117200Y0055816D01*
X0116847Y0056168D01*
X0110860Y0056168D01*
X0110491Y0055800D01*
X0105800Y0055800D01*
X0105800Y0070709D01*
X0107038Y0071946D01*
X0113331Y0071946D01*
X0113231Y0071847D01*
X0113231Y0065860D01*
X0114403Y0064688D01*
X0114621Y0064688D01*
X0119148Y0060161D01*
X0120161Y0059148D01*
X0121484Y0058600D01*
X0123222Y0058600D01*
X0123997Y0057825D01*
X0130403Y0057825D01*
X0131575Y0058997D01*
X0131575Y0065403D01*
X0130403Y0066575D01*
X0123997Y0066575D01*
X0123457Y0066035D01*
X0121168Y0068323D01*
X0121168Y0071847D01*
X0120816Y0072200D01*
X0121168Y0072553D01*
X0121168Y0073600D01*
X0125709Y0073600D01*
X0130161Y0069148D01*
X0131484Y0068600D01*
X0135254Y0068600D01*
X0135254Y0055562D01*
X0134688Y0054997D01*
X0134688Y0054803D01*
X0134239Y0055252D01*
X0132916Y0055800D01*
X0123909Y0055800D01*
X0123847Y0057975D02*
X0105800Y0057975D01*
X0105800Y0060373D02*
X0118936Y0060373D01*
X0116537Y0062772D02*
X0105800Y0062772D01*
X0105800Y0065170D02*
X0113921Y0065170D01*
X0113231Y0067569D02*
X0105800Y0067569D01*
X0105800Y0069967D02*
X0113231Y0069967D01*
X0121168Y0069967D02*
X0129342Y0069967D01*
X0126943Y0072366D02*
X0120982Y0072366D01*
X0121922Y0067569D02*
X0135254Y0067569D01*
X0135254Y0065170D02*
X0131575Y0065170D01*
X0131575Y0062772D02*
X0135254Y0062772D01*
X0135254Y0060373D02*
X0131575Y0060373D01*
X0130553Y0057975D02*
X0135254Y0057975D01*
X0135254Y0055576D02*
X0133456Y0055576D01*
X0132328Y0077163D02*
X0136965Y0077163D01*
X0137926Y0079561D02*
X0129930Y0079561D01*
X0144722Y0077163D02*
X0283600Y0077163D01*
X0283600Y0079561D02*
X0145689Y0079561D01*
X0145800Y0081960D02*
X0283600Y0081960D01*
X0283600Y0084358D02*
X0264449Y0084358D01*
X0266848Y0086757D02*
X0283600Y0086757D01*
X0283600Y0089155D02*
X0269247Y0089155D01*
X0270800Y0091554D02*
X0283600Y0091554D01*
X0283600Y0093952D02*
X0270800Y0093952D01*
X0270800Y0096351D02*
X0283600Y0096351D01*
X0283600Y0098749D02*
X0270800Y0098749D01*
X0270800Y0101148D02*
X0283600Y0101148D01*
X0283600Y0103546D02*
X0270800Y0103546D01*
X0270800Y0105945D02*
X0283600Y0105945D01*
X0283600Y0108343D02*
X0270800Y0108343D01*
X0270800Y0110742D02*
X0283600Y0110742D01*
X0283600Y0113140D02*
X0270800Y0113140D01*
X0270800Y0115539D02*
X0283600Y0115539D01*
X0283600Y0117937D02*
X0270800Y0117937D01*
X0270800Y0120336D02*
X0283600Y0120336D01*
X0283600Y0122734D02*
X0270800Y0122734D01*
X0270800Y0125133D02*
X0283600Y0125133D01*
X0283600Y0127532D02*
X0270800Y0127532D01*
X0270800Y0129930D02*
X0283600Y0129930D01*
X0283600Y0132329D02*
X0270800Y0132329D01*
X0270800Y0134727D02*
X0283600Y0134727D01*
X0283600Y0137126D02*
X0270800Y0137126D01*
X0270800Y0139524D02*
X0283600Y0139524D01*
X0283600Y0141923D02*
X0270800Y0141923D01*
X0270800Y0144321D02*
X0283600Y0144321D01*
X0283600Y0146720D02*
X0270800Y0146720D01*
X0270800Y0149118D02*
X0283600Y0149118D01*
X0283600Y0151517D02*
X0270800Y0151517D01*
X0270800Y0153915D02*
X0283600Y0153915D01*
X0283600Y0156314D02*
X0270800Y0156314D01*
X0270800Y0158712D02*
X0283600Y0158712D01*
X0283600Y0161111D02*
X0270800Y0161111D01*
X0270800Y0163509D02*
X0283600Y0163509D01*
X0283600Y0165908D02*
X0270800Y0165908D01*
X0270800Y0168306D02*
X0283600Y0168306D01*
X0283600Y0170705D02*
X0275659Y0170705D01*
X0278194Y0173103D02*
X0283600Y0173103D01*
X0283600Y0175502D02*
X0280393Y0175502D01*
X0280800Y0177900D02*
X0283600Y0177900D01*
X0283600Y0180299D02*
X0280800Y0180299D01*
X0280800Y0182697D02*
X0283600Y0182697D01*
X0283600Y0185096D02*
X0280800Y0185096D01*
X0280800Y0187494D02*
X0283600Y0187494D01*
X0283600Y0189893D02*
X0280800Y0189893D01*
X0280800Y0192291D02*
X0283600Y0192291D01*
X0283600Y0194690D02*
X0279801Y0194690D01*
X0277403Y0197088D02*
X0283600Y0197088D01*
X0283600Y0199487D02*
X0275004Y0199487D01*
X0272606Y0201885D02*
X0283600Y0201885D01*
X0283600Y0204284D02*
X0270800Y0204284D01*
X0270800Y0206682D02*
X0283600Y0206682D01*
X0283600Y0209081D02*
X0279390Y0209081D01*
X0279712Y0211479D02*
X0283600Y0211479D01*
X0283600Y0213878D02*
X0279712Y0213878D01*
X0279146Y0216276D02*
X0283600Y0216276D01*
X0283600Y0218675D02*
X0279146Y0218675D01*
X0279146Y0221073D02*
X0283600Y0221073D01*
X0283600Y0223472D02*
X0279146Y0223472D01*
X0279146Y0225870D02*
X0283600Y0225870D01*
X0283600Y0228269D02*
X0279146Y0228269D01*
X0279146Y0230668D02*
X0283600Y0230668D01*
X0283600Y0233066D02*
X0279146Y0233066D01*
X0279146Y0235465D02*
X0283600Y0235465D01*
X0283600Y0237863D02*
X0279146Y0237863D01*
X0279146Y0240262D02*
X0283600Y0240262D01*
X0283600Y0242660D02*
X0279146Y0242660D01*
X0279146Y0245059D02*
X0283600Y0245059D01*
X0283600Y0247457D02*
X0279146Y0247457D01*
X0279712Y0249856D02*
X0283600Y0249856D01*
X0283600Y0252254D02*
X0280434Y0252254D01*
X0280800Y0254653D02*
X0283600Y0254653D01*
X0283600Y0257051D02*
X0280800Y0257051D01*
X0280800Y0259450D02*
X0283600Y0259450D01*
X0283600Y0261848D02*
X0280800Y0261848D01*
X0280800Y0264247D02*
X0283600Y0264247D01*
X0283600Y0266645D02*
X0280800Y0266645D01*
X0280333Y0269044D02*
X0283600Y0269044D01*
X0283600Y0271442D02*
X0278049Y0271442D01*
X0275800Y0273841D02*
X0283600Y0273841D01*
X0283600Y0276239D02*
X0275800Y0276239D01*
X0275800Y0278638D02*
X0283600Y0278638D01*
X0283600Y0281036D02*
X0275800Y0281036D01*
X0275800Y0283435D02*
X0283600Y0283435D01*
X0283600Y0285833D02*
X0275800Y0285833D01*
X0275800Y0288232D02*
X0283590Y0288232D01*
X0282825Y0290630D02*
X0275800Y0290630D01*
X0275800Y0293029D02*
X0282825Y0293029D01*
X0282849Y0295427D02*
X0275800Y0295427D01*
X0275800Y0297826D02*
X0292000Y0297826D01*
X0292000Y0300224D02*
X0275800Y0300224D01*
X0275800Y0302623D02*
X0292000Y0302623D01*
X0292000Y0305021D02*
X0275800Y0305021D01*
X0275800Y0307420D02*
X0292000Y0307420D01*
X0292000Y0309818D02*
X0275800Y0309818D01*
X0275800Y0312217D02*
X0292000Y0312217D01*
X0292000Y0314615D02*
X0275800Y0314615D01*
X0275800Y0317014D02*
X0292000Y0317014D01*
X0292000Y0319412D02*
X0275800Y0319412D01*
X0275800Y0321811D02*
X0292000Y0321811D01*
X0292000Y0324209D02*
X0275800Y0324209D01*
X0275800Y0326608D02*
X0292000Y0326608D01*
X0292000Y0329006D02*
X0275800Y0329006D01*
X0275800Y0331405D02*
X0292000Y0331405D01*
X0292000Y0333803D02*
X0275432Y0333803D01*
X0268600Y0326608D02*
X0201699Y0326608D01*
X0199301Y0324209D02*
X0268600Y0324209D01*
X0268600Y0321811D02*
X0196902Y0321811D01*
X0194504Y0319412D02*
X0268600Y0319412D01*
X0268600Y0317014D02*
X0192105Y0317014D01*
X0190800Y0314615D02*
X0268600Y0314615D01*
X0268600Y0312217D02*
X0190800Y0312217D01*
X0190800Y0309818D02*
X0268600Y0309818D01*
X0268600Y0307420D02*
X0190800Y0307420D01*
X0190800Y0305021D02*
X0268600Y0305021D01*
X0268600Y0302623D02*
X0190800Y0302623D01*
X0190800Y0300224D02*
X0268600Y0300224D01*
X0268600Y0297826D02*
X0190800Y0297826D01*
X0190800Y0295427D02*
X0252849Y0295427D01*
X0252825Y0295403D02*
X0252825Y0288997D01*
X0253600Y0288222D01*
X0253600Y0273691D01*
X0240709Y0260800D01*
X0224712Y0260800D01*
X0223389Y0260252D01*
X0223332Y0260194D01*
X0219894Y0260194D01*
X0218723Y0259023D01*
X0218723Y0253566D01*
X0219894Y0252394D01*
X0229151Y0252394D01*
X0230323Y0253566D01*
X0230323Y0253600D01*
X0242916Y0253600D01*
X0244239Y0254148D01*
X0260252Y0270161D01*
X0260800Y0271484D01*
X0260800Y0288222D01*
X0261575Y0288997D01*
X0261575Y0295403D01*
X0260403Y0296575D01*
X0253997Y0296575D01*
X0252825Y0295403D01*
X0252825Y0293029D02*
X0190800Y0293029D01*
X0190800Y0290630D02*
X0210539Y0290630D01*
X0208141Y0288232D02*
X0190800Y0288232D01*
X0190800Y0285833D02*
X0205742Y0285833D01*
X0203344Y0283435D02*
X0190800Y0283435D01*
X0190800Y0281036D02*
X0200945Y0281036D01*
X0198547Y0278638D02*
X0190800Y0278638D01*
X0190800Y0276239D02*
X0196148Y0276239D01*
X0193983Y0273841D02*
X0190800Y0273841D01*
X0190800Y0271442D02*
X0193600Y0271442D01*
X0193600Y0269044D02*
X0190800Y0269044D01*
X0190800Y0266645D02*
X0193600Y0266645D01*
X0193600Y0264247D02*
X0189338Y0264247D01*
X0186939Y0261848D02*
X0193600Y0261848D01*
X0193600Y0259450D02*
X0184541Y0259450D01*
X0182142Y0257051D02*
X0193600Y0257051D01*
X0193600Y0254653D02*
X0179744Y0254653D01*
X0177345Y0252254D02*
X0193600Y0252254D01*
X0193600Y0249856D02*
X0059947Y0249856D01*
X0062345Y0252254D02*
X0152055Y0252254D01*
X0149656Y0254653D02*
X0064744Y0254653D01*
X0067142Y0257051D02*
X0148600Y0257051D01*
X0148600Y0259450D02*
X0069541Y0259450D01*
X0071939Y0261848D02*
X0148600Y0261848D01*
X0148600Y0264247D02*
X0076575Y0264247D01*
X0076575Y0266645D02*
X0148600Y0266645D01*
X0148600Y0269044D02*
X0123987Y0269044D01*
X0126533Y0271442D02*
X0148600Y0271442D01*
X0148600Y0273841D02*
X0128932Y0273841D01*
X0130699Y0276239D02*
X0148600Y0276239D01*
X0148600Y0278638D02*
X0130800Y0278638D01*
X0130800Y0281036D02*
X0148600Y0281036D01*
X0148600Y0283435D02*
X0130800Y0283435D01*
X0122454Y0293029D02*
X0183600Y0293029D01*
X0183600Y0295427D02*
X0122454Y0295427D01*
X0121665Y0297826D02*
X0183600Y0297826D01*
X0183600Y0300224D02*
X0119267Y0300224D01*
X0116868Y0302623D02*
X0183600Y0302623D01*
X0183600Y0305021D02*
X0114470Y0305021D01*
X0155800Y0283435D02*
X0183600Y0283435D01*
X0183600Y0285833D02*
X0176937Y0285833D01*
X0176937Y0288232D02*
X0183600Y0288232D01*
X0183600Y0290630D02*
X0176865Y0290630D01*
X0183600Y0281036D02*
X0155800Y0281036D01*
X0155800Y0278638D02*
X0183600Y0278638D01*
X0183600Y0276239D02*
X0155800Y0276239D01*
X0155800Y0273841D02*
X0183600Y0273841D01*
X0183600Y0271442D02*
X0155800Y0271442D01*
X0155800Y0269044D02*
X0183600Y0269044D01*
X0181554Y0266645D02*
X0176913Y0266645D01*
X0176937Y0264247D02*
X0179156Y0264247D01*
X0174358Y0259450D02*
X0155800Y0259450D01*
X0155800Y0261848D02*
X0165337Y0261848D01*
X0165337Y0264247D02*
X0155800Y0264247D01*
X0155800Y0266645D02*
X0165361Y0266645D01*
X0166509Y0247793D02*
X0165337Y0246621D01*
X0165337Y0241164D01*
X0166509Y0239993D01*
X0175765Y0239993D01*
X0176937Y0241164D01*
X0176937Y0246621D01*
X0175765Y0247793D01*
X0166509Y0247793D01*
X0166173Y0247457D02*
X0057548Y0247457D01*
X0055150Y0245059D02*
X0122825Y0245059D01*
X0122569Y0242660D02*
X0054146Y0242660D01*
X0054146Y0240262D02*
X0120540Y0240262D01*
X0120254Y0237863D02*
X0054146Y0237863D01*
X0054146Y0235465D02*
X0120254Y0235465D01*
X0120254Y0233066D02*
X0054146Y0233066D01*
X0058236Y0230668D02*
X0120254Y0230668D01*
X0120254Y0228269D02*
X0061222Y0228269D01*
X0063621Y0225870D02*
X0120254Y0225870D01*
X0127454Y0228269D02*
X0138178Y0228269D01*
X0140576Y0230668D02*
X0127454Y0230668D01*
X0127454Y0233066D02*
X0142975Y0233066D01*
X0145373Y0235465D02*
X0127454Y0235465D01*
X0130441Y0237863D02*
X0193600Y0237863D01*
X0193600Y0235465D02*
X0176437Y0235465D01*
X0176437Y0233066D02*
X0193600Y0233066D01*
X0193600Y0230668D02*
X0175640Y0230668D01*
X0176937Y0225870D02*
X0193600Y0225870D01*
X0193600Y0223472D02*
X0176937Y0223472D01*
X0176846Y0221073D02*
X0193600Y0221073D01*
X0193600Y0218675D02*
X0148015Y0218675D01*
X0144898Y0216276D02*
X0193600Y0216276D01*
X0193600Y0213878D02*
X0141781Y0213878D01*
X0138997Y0211575D02*
X0137825Y0210403D01*
X0137825Y0203997D01*
X0138997Y0202825D01*
X0145403Y0202825D01*
X0146178Y0203600D01*
X0165337Y0203600D01*
X0165337Y0200850D01*
X0166509Y0199678D01*
X0175765Y0199678D01*
X0176937Y0200850D01*
X0176937Y0206306D01*
X0175765Y0207478D01*
X0172328Y0207478D01*
X0169554Y0210252D01*
X0168231Y0210800D01*
X0146178Y0210800D01*
X0145403Y0211575D01*
X0138997Y0211575D01*
X0138901Y0211479D02*
X0138664Y0211479D01*
X0137825Y0209081D02*
X0135547Y0209081D01*
X0137825Y0206682D02*
X0132430Y0206682D01*
X0130800Y0204284D02*
X0137825Y0204284D01*
X0130800Y0201885D02*
X0165337Y0201885D01*
X0165337Y0197088D02*
X0146575Y0197088D01*
X0146575Y0199487D02*
X0193600Y0199487D01*
X0193600Y0201885D02*
X0176937Y0201885D01*
X0176937Y0204284D02*
X0193600Y0204284D01*
X0193600Y0206682D02*
X0176561Y0206682D01*
X0170725Y0209081D02*
X0193600Y0209081D01*
X0193600Y0211479D02*
X0145499Y0211479D01*
X0133092Y0216276D02*
X0106368Y0216276D01*
X0103969Y0213878D02*
X0129975Y0213878D01*
X0126858Y0211479D02*
X0101571Y0211479D01*
X0099172Y0209081D02*
X0124082Y0209081D01*
X0123600Y0206682D02*
X0096774Y0206682D01*
X0094375Y0204284D02*
X0123600Y0204284D01*
X0123600Y0201885D02*
X0091977Y0201885D01*
X0089578Y0199487D02*
X0102825Y0199487D01*
X0102825Y0197088D02*
X0047454Y0197088D01*
X0047454Y0194690D02*
X0102825Y0194690D01*
X0088990Y0209081D02*
X0047454Y0209081D01*
X0047454Y0211479D02*
X0091388Y0211479D01*
X0093787Y0213878D02*
X0071456Y0213878D01*
X0071575Y0216276D02*
X0096185Y0216276D01*
X0098584Y0218675D02*
X0071575Y0218675D01*
X0070905Y0221073D02*
X0100982Y0221073D01*
X0103381Y0223472D02*
X0066019Y0223472D01*
X0060634Y0218675D02*
X0047454Y0218675D01*
X0047454Y0221073D02*
X0058235Y0221073D01*
X0055837Y0223472D02*
X0053781Y0223472D01*
X0047454Y0216276D02*
X0062825Y0216276D01*
X0062944Y0213878D02*
X0047454Y0213878D01*
X0047454Y0206682D02*
X0086591Y0206682D01*
X0125254Y0192291D02*
X0047103Y0192291D01*
X0044984Y0189893D02*
X0125254Y0189893D01*
X0125254Y0187494D02*
X0032585Y0187494D01*
X0030800Y0185096D02*
X0125254Y0185096D01*
X0132454Y0185096D02*
X0135005Y0185096D01*
X0137403Y0187494D02*
X0132454Y0187494D01*
X0132454Y0189893D02*
X0139802Y0189893D01*
X0138997Y0192825D02*
X0142734Y0192825D01*
X0132495Y0182586D01*
X0132454Y0182487D01*
X0132454Y0193331D01*
X0132553Y0193231D01*
X0138540Y0193231D01*
X0138565Y0193257D01*
X0138997Y0192825D01*
X0142200Y0192291D02*
X0132454Y0192291D01*
X0132454Y0182697D02*
X0132606Y0182697D01*
X0140390Y0180299D02*
X0193600Y0180299D01*
X0193600Y0182697D02*
X0176937Y0182697D01*
X0176937Y0181913D02*
X0175765Y0180741D01*
X0166509Y0180741D01*
X0165337Y0181913D01*
X0165337Y0187369D01*
X0166509Y0188541D01*
X0175765Y0188541D01*
X0176937Y0187369D01*
X0176937Y0181913D01*
X0176937Y0185096D02*
X0193600Y0185096D01*
X0193600Y0187494D02*
X0176812Y0187494D01*
X0176937Y0192291D02*
X0193600Y0192291D01*
X0193600Y0189893D02*
X0171480Y0189893D01*
X0165462Y0187494D02*
X0147585Y0187494D01*
X0145187Y0185096D02*
X0165337Y0185096D01*
X0165337Y0182697D02*
X0142788Y0182697D01*
X0139712Y0177900D02*
X0148102Y0177900D01*
X0145411Y0175502D02*
X0139712Y0175502D01*
X0143678Y0173103D02*
X0132454Y0173103D01*
X0132454Y0170705D02*
X0143600Y0170705D01*
X0143215Y0168306D02*
X0132454Y0168306D01*
X0132454Y0165908D02*
X0140817Y0165908D01*
X0146202Y0161111D02*
X0166139Y0161111D01*
X0166509Y0160741D02*
X0175765Y0160741D01*
X0176937Y0161913D01*
X0176937Y0167369D01*
X0175765Y0168541D01*
X0166509Y0168541D01*
X0165337Y0167369D01*
X0165337Y0161913D01*
X0166509Y0160741D01*
X0165337Y0163509D02*
X0148600Y0163509D01*
X0150561Y0165908D02*
X0165337Y0165908D01*
X0166274Y0168306D02*
X0150800Y0168306D01*
X0150800Y0170705D02*
X0193600Y0170705D01*
X0193600Y0173103D02*
X0176937Y0173103D01*
X0176937Y0175502D02*
X0193600Y0175502D01*
X0193600Y0177900D02*
X0176406Y0177900D01*
X0176000Y0168306D02*
X0193600Y0168306D01*
X0193600Y0165908D02*
X0176937Y0165908D01*
X0176937Y0163509D02*
X0193600Y0163509D01*
X0193600Y0161111D02*
X0176135Y0161111D01*
X0191425Y0151517D02*
X0136168Y0151517D01*
X0136168Y0153915D02*
X0193600Y0153915D01*
X0193600Y0156314D02*
X0136168Y0156314D01*
X0143187Y0158712D02*
X0193600Y0158712D01*
X0200800Y0158712D02*
X0248600Y0158712D01*
X0248600Y0156314D02*
X0200800Y0156314D01*
X0200800Y0153915D02*
X0248600Y0153915D01*
X0248600Y0151517D02*
X0200800Y0151517D01*
X0199209Y0149118D02*
X0218093Y0149118D01*
X0218093Y0150243D02*
X0218093Y0144787D01*
X0219264Y0143615D01*
X0228521Y0143615D01*
X0229693Y0144787D01*
X0229693Y0150243D01*
X0228521Y0151415D01*
X0219264Y0151415D01*
X0218093Y0150243D01*
X0218093Y0146720D02*
X0196811Y0146720D01*
X0194412Y0144321D02*
X0218558Y0144321D01*
X0218276Y0141923D02*
X0192014Y0141923D01*
X0192825Y0139524D02*
X0190800Y0139524D01*
X0190800Y0137126D02*
X0192825Y0137126D01*
X0192825Y0134727D02*
X0190800Y0134727D01*
X0190800Y0132329D02*
X0263600Y0132329D01*
X0263600Y0134727D02*
X0224700Y0134727D01*
X0229227Y0144321D02*
X0248600Y0144321D01*
X0248600Y0146720D02*
X0229693Y0146720D01*
X0229693Y0149118D02*
X0248600Y0149118D01*
X0255800Y0149118D02*
X0263600Y0149118D01*
X0263600Y0146720D02*
X0255800Y0146720D01*
X0255800Y0144321D02*
X0263600Y0144321D01*
X0263600Y0141923D02*
X0255800Y0141923D01*
X0255800Y0139524D02*
X0263600Y0139524D01*
X0263600Y0137126D02*
X0255316Y0137126D01*
X0263600Y0129930D02*
X0191575Y0129930D01*
X0191575Y0127532D02*
X0263600Y0127532D01*
X0263600Y0125133D02*
X0191575Y0125133D01*
X0171378Y0115539D02*
X0263600Y0115539D01*
X0263600Y0117937D02*
X0229025Y0117937D01*
X0229063Y0120336D02*
X0263600Y0120336D01*
X0263600Y0122734D02*
X0229063Y0122734D01*
X0255800Y0151517D02*
X0263600Y0151517D01*
X0263600Y0153915D02*
X0255800Y0153915D01*
X0255800Y0156314D02*
X0263600Y0156314D01*
X0263600Y0158712D02*
X0255800Y0158712D01*
X0255800Y0161111D02*
X0263600Y0161111D01*
X0263600Y0163509D02*
X0255800Y0163509D01*
X0255800Y0165908D02*
X0263600Y0165908D01*
X0263600Y0168306D02*
X0255800Y0168306D01*
X0255800Y0170705D02*
X0263387Y0170705D01*
X0263231Y0173103D02*
X0255800Y0173103D01*
X0248600Y0173103D02*
X0229693Y0173103D01*
X0229693Y0171913D02*
X0228521Y0170741D01*
X0219264Y0170741D01*
X0218093Y0171913D01*
X0218093Y0177369D01*
X0219264Y0178541D01*
X0228521Y0178541D01*
X0229693Y0177369D01*
X0229693Y0171913D01*
X0229693Y0175502D02*
X0248600Y0175502D01*
X0248600Y0177900D02*
X0229162Y0177900D01*
X0228521Y0180741D02*
X0229693Y0181913D01*
X0229693Y0187369D01*
X0228521Y0188541D01*
X0219264Y0188541D01*
X0218093Y0187369D01*
X0218093Y0181913D01*
X0219264Y0180741D01*
X0228521Y0180741D01*
X0229693Y0182697D02*
X0262891Y0182697D01*
X0271168Y0182697D02*
X0273600Y0182697D01*
X0273600Y0180299D02*
X0271168Y0180299D01*
X0271168Y0177900D02*
X0272809Y0177900D01*
X0273600Y0185096D02*
X0229693Y0185096D01*
X0229568Y0187494D02*
X0273600Y0187494D01*
X0273600Y0189893D02*
X0200800Y0189893D01*
X0200800Y0192291D02*
X0272017Y0192291D01*
X0269619Y0194690D02*
X0200800Y0194690D01*
X0200800Y0197088D02*
X0267220Y0197088D01*
X0264822Y0199487D02*
X0200800Y0199487D01*
X0200800Y0201885D02*
X0263600Y0201885D01*
X0263600Y0204284D02*
X0200800Y0204284D01*
X0200800Y0206682D02*
X0263600Y0206682D01*
X0263600Y0209081D02*
X0200800Y0209081D01*
X0200800Y0211479D02*
X0263690Y0211479D01*
X0264688Y0213878D02*
X0200800Y0213878D01*
X0200800Y0216276D02*
X0265254Y0216276D01*
X0265254Y0218675D02*
X0248097Y0218675D01*
X0247916Y0218600D02*
X0249239Y0219148D01*
X0250252Y0220161D01*
X0255252Y0225161D01*
X0255800Y0226484D01*
X0255800Y0233222D01*
X0256575Y0233997D01*
X0256575Y0240403D01*
X0255403Y0241575D01*
X0248997Y0241575D01*
X0247825Y0240403D01*
X0247825Y0233997D01*
X0248600Y0233222D01*
X0248600Y0228691D01*
X0245709Y0225800D01*
X0229693Y0225800D01*
X0229693Y0227684D01*
X0228521Y0228856D01*
X0219264Y0228856D01*
X0218093Y0227684D01*
X0218093Y0222227D01*
X0219264Y0221056D01*
X0222702Y0221056D01*
X0224610Y0219148D01*
X0225933Y0218600D01*
X0247916Y0218600D01*
X0251165Y0221073D02*
X0265254Y0221073D01*
X0265254Y0223472D02*
X0253563Y0223472D01*
X0255546Y0225870D02*
X0265254Y0225870D01*
X0265254Y0228269D02*
X0255800Y0228269D01*
X0255800Y0230668D02*
X0265254Y0230668D01*
X0265254Y0233066D02*
X0255800Y0233066D01*
X0256575Y0235465D02*
X0265254Y0235465D01*
X0265254Y0237863D02*
X0256575Y0237863D01*
X0256575Y0240262D02*
X0265254Y0240262D01*
X0265254Y0242660D02*
X0229693Y0242660D01*
X0229693Y0242227D02*
X0228521Y0241056D01*
X0219264Y0241056D01*
X0218093Y0242227D01*
X0218093Y0247684D01*
X0219264Y0248856D01*
X0228521Y0248856D01*
X0229693Y0247684D01*
X0229693Y0242227D01*
X0229693Y0245059D02*
X0265254Y0245059D01*
X0265254Y0247457D02*
X0229693Y0247457D01*
X0228521Y0238856D02*
X0219264Y0238856D01*
X0218093Y0237684D01*
X0218093Y0232227D01*
X0219264Y0231056D01*
X0228521Y0231056D01*
X0229693Y0232227D01*
X0229693Y0237684D01*
X0228521Y0238856D01*
X0229514Y0237863D02*
X0247825Y0237863D01*
X0247825Y0235465D02*
X0229693Y0235465D01*
X0229693Y0233066D02*
X0248600Y0233066D01*
X0248600Y0230668D02*
X0200800Y0230668D01*
X0200800Y0233066D02*
X0218093Y0233066D01*
X0218093Y0235465D02*
X0200800Y0235465D01*
X0200800Y0237863D02*
X0218272Y0237863D01*
X0218093Y0242660D02*
X0200800Y0242660D01*
X0200800Y0240262D02*
X0247825Y0240262D01*
X0248178Y0228269D02*
X0229108Y0228269D01*
X0229693Y0225870D02*
X0245779Y0225870D01*
X0225752Y0218675D02*
X0200800Y0218675D01*
X0200800Y0221073D02*
X0219247Y0221073D01*
X0218093Y0223472D02*
X0200800Y0223472D01*
X0200800Y0225870D02*
X0218093Y0225870D01*
X0218678Y0228269D02*
X0200800Y0228269D01*
X0193600Y0228269D02*
X0148360Y0228269D01*
X0135779Y0225870D02*
X0133838Y0225870D01*
X0131575Y0240262D02*
X0166240Y0240262D01*
X0165337Y0242660D02*
X0131575Y0242660D01*
X0131575Y0245059D02*
X0165337Y0245059D01*
X0176101Y0247457D02*
X0193600Y0247457D01*
X0193600Y0245059D02*
X0176937Y0245059D01*
X0176937Y0242660D02*
X0193600Y0242660D01*
X0193600Y0240262D02*
X0176034Y0240262D01*
X0200800Y0245059D02*
X0218093Y0245059D01*
X0218093Y0247457D02*
X0200800Y0247457D01*
X0200800Y0249856D02*
X0264688Y0249856D01*
X0264688Y0252254D02*
X0200800Y0252254D01*
X0200800Y0254653D02*
X0218723Y0254653D01*
X0218723Y0257051D02*
X0200800Y0257051D01*
X0200800Y0259450D02*
X0219150Y0259450D01*
X0203932Y0273841D02*
X0253600Y0273841D01*
X0253600Y0276239D02*
X0206330Y0276239D01*
X0208729Y0278638D02*
X0253600Y0278638D01*
X0253600Y0281036D02*
X0211127Y0281036D01*
X0213526Y0283435D02*
X0253600Y0283435D01*
X0253600Y0285833D02*
X0229693Y0285833D01*
X0229693Y0288232D02*
X0253590Y0288232D01*
X0252825Y0290630D02*
X0229621Y0290630D01*
X0248953Y0269044D02*
X0200800Y0269044D01*
X0200800Y0266645D02*
X0246554Y0266645D01*
X0244155Y0264247D02*
X0200800Y0264247D01*
X0200800Y0261848D02*
X0241757Y0261848D01*
X0247142Y0257051D02*
X0273600Y0257051D01*
X0273600Y0259450D02*
X0249541Y0259450D01*
X0251939Y0261848D02*
X0273600Y0261848D01*
X0273600Y0264247D02*
X0254338Y0264247D01*
X0256736Y0266645D02*
X0272664Y0266645D01*
X0270265Y0269044D02*
X0259135Y0269044D01*
X0260783Y0271442D02*
X0268617Y0271442D01*
X0268600Y0273841D02*
X0260800Y0273841D01*
X0260800Y0276239D02*
X0268600Y0276239D01*
X0268600Y0278638D02*
X0260800Y0278638D01*
X0260800Y0281036D02*
X0268600Y0281036D01*
X0268600Y0283435D02*
X0260800Y0283435D01*
X0260800Y0285833D02*
X0268600Y0285833D01*
X0268600Y0288232D02*
X0260810Y0288232D01*
X0261575Y0290630D02*
X0268600Y0290630D01*
X0268600Y0293029D02*
X0261575Y0293029D01*
X0261551Y0295427D02*
X0268600Y0295427D01*
X0290810Y0288232D02*
X0292000Y0288232D01*
X0292000Y0290630D02*
X0291575Y0290630D01*
X0291575Y0293029D02*
X0292000Y0293029D01*
X0292000Y0295427D02*
X0291551Y0295427D01*
X0292000Y0285833D02*
X0290800Y0285833D01*
X0290800Y0283435D02*
X0292000Y0283435D01*
X0292000Y0281036D02*
X0290800Y0281036D01*
X0290800Y0278638D02*
X0292000Y0278638D01*
X0292000Y0276239D02*
X0290800Y0276239D01*
X0290800Y0273841D02*
X0292000Y0273841D01*
X0292000Y0271442D02*
X0290800Y0271442D01*
X0290800Y0269044D02*
X0292000Y0269044D01*
X0292000Y0266645D02*
X0290800Y0266645D01*
X0290800Y0264247D02*
X0292000Y0264247D01*
X0292000Y0261848D02*
X0290800Y0261848D01*
X0290800Y0259450D02*
X0292000Y0259450D01*
X0292000Y0257051D02*
X0290800Y0257051D01*
X0290800Y0254653D02*
X0292000Y0254653D01*
X0292000Y0252254D02*
X0290800Y0252254D01*
X0290800Y0249856D02*
X0292000Y0249856D01*
X0292000Y0247457D02*
X0290800Y0247457D01*
X0290800Y0245059D02*
X0292000Y0245059D01*
X0292000Y0242660D02*
X0290800Y0242660D01*
X0290800Y0240262D02*
X0292000Y0240262D01*
X0292000Y0237863D02*
X0290800Y0237863D01*
X0290800Y0235465D02*
X0292000Y0235465D01*
X0292000Y0233066D02*
X0290800Y0233066D01*
X0290800Y0230668D02*
X0292000Y0230668D01*
X0292000Y0228269D02*
X0290800Y0228269D01*
X0290800Y0225870D02*
X0292000Y0225870D01*
X0292000Y0223472D02*
X0290800Y0223472D01*
X0290800Y0221073D02*
X0292000Y0221073D01*
X0292000Y0218675D02*
X0290800Y0218675D01*
X0290800Y0216276D02*
X0292000Y0216276D01*
X0292000Y0213878D02*
X0290800Y0213878D01*
X0290800Y0211479D02*
X0292000Y0211479D01*
X0292000Y0209081D02*
X0290800Y0209081D01*
X0290800Y0206682D02*
X0292000Y0206682D01*
X0292000Y0204284D02*
X0290800Y0204284D01*
X0290800Y0201885D02*
X0292000Y0201885D01*
X0292000Y0199487D02*
X0290800Y0199487D01*
X0290800Y0197088D02*
X0292000Y0197088D01*
X0292000Y0194690D02*
X0290800Y0194690D01*
X0290800Y0192291D02*
X0292000Y0192291D01*
X0292000Y0189893D02*
X0290800Y0189893D01*
X0290800Y0187494D02*
X0292000Y0187494D01*
X0292000Y0185096D02*
X0290800Y0185096D01*
X0290800Y0182697D02*
X0292000Y0182697D01*
X0292000Y0180299D02*
X0290800Y0180299D01*
X0290800Y0177900D02*
X0292000Y0177900D01*
X0292000Y0175502D02*
X0290800Y0175502D01*
X0290800Y0173103D02*
X0292000Y0173103D01*
X0292000Y0170705D02*
X0290800Y0170705D01*
X0290800Y0168306D02*
X0292000Y0168306D01*
X0292000Y0165908D02*
X0290800Y0165908D01*
X0290800Y0163509D02*
X0292000Y0163509D01*
X0292000Y0161111D02*
X0290800Y0161111D01*
X0290800Y0158712D02*
X0292000Y0158712D01*
X0292000Y0156314D02*
X0290800Y0156314D01*
X0290800Y0153915D02*
X0292000Y0153915D01*
X0292000Y0151517D02*
X0290800Y0151517D01*
X0290800Y0149118D02*
X0292000Y0149118D01*
X0292000Y0146720D02*
X0290800Y0146720D01*
X0290800Y0144321D02*
X0292000Y0144321D01*
X0292000Y0141923D02*
X0290800Y0141923D01*
X0290800Y0139524D02*
X0292000Y0139524D01*
X0292000Y0137126D02*
X0290800Y0137126D01*
X0290800Y0134727D02*
X0292000Y0134727D01*
X0292000Y0132329D02*
X0290800Y0132329D01*
X0290800Y0129930D02*
X0292000Y0129930D01*
X0292000Y0127532D02*
X0290800Y0127532D01*
X0290800Y0125133D02*
X0292000Y0125133D01*
X0292000Y0122734D02*
X0290800Y0122734D01*
X0290800Y0120336D02*
X0292000Y0120336D01*
X0292000Y0117937D02*
X0290800Y0117937D01*
X0290800Y0115539D02*
X0292000Y0115539D01*
X0292000Y0113140D02*
X0290800Y0113140D01*
X0290800Y0110742D02*
X0292000Y0110742D01*
X0292000Y0108343D02*
X0290800Y0108343D01*
X0290800Y0105945D02*
X0292000Y0105945D01*
X0292000Y0103546D02*
X0290800Y0103546D01*
X0290800Y0101148D02*
X0292000Y0101148D01*
X0292000Y0098749D02*
X0290800Y0098749D01*
X0290800Y0096351D02*
X0292000Y0096351D01*
X0292000Y0093952D02*
X0290800Y0093952D01*
X0290800Y0091554D02*
X0292000Y0091554D01*
X0292000Y0089155D02*
X0290800Y0089155D01*
X0290800Y0086757D02*
X0292000Y0086757D01*
X0292000Y0084358D02*
X0290800Y0084358D01*
X0290800Y0081960D02*
X0292000Y0081960D01*
X0292000Y0079561D02*
X0290800Y0079561D01*
X0290800Y0077163D02*
X0292000Y0077163D01*
X0292000Y0074764D02*
X0290800Y0074764D01*
X0290800Y0072366D02*
X0292000Y0072366D01*
X0292000Y0069967D02*
X0290800Y0069967D01*
X0290800Y0067569D02*
X0292000Y0067569D01*
X0292000Y0065170D02*
X0290800Y0065170D01*
X0290800Y0062772D02*
X0292000Y0062772D01*
X0292000Y0060373D02*
X0290800Y0060373D01*
X0290800Y0057975D02*
X0292000Y0057975D01*
X0292000Y0055576D02*
X0290424Y0055576D01*
X0292000Y0053178D02*
X0288269Y0053178D01*
X0285870Y0050779D02*
X0292000Y0050779D01*
X0292000Y0048381D02*
X0283472Y0048381D01*
X0281073Y0045982D02*
X0292000Y0045982D01*
X0292000Y0043584D02*
X0278675Y0043584D01*
X0276276Y0041185D02*
X0292000Y0041185D01*
X0292000Y0038787D02*
X0273878Y0038787D01*
X0271479Y0036388D02*
X0292000Y0036388D01*
X0292000Y0033990D02*
X0269081Y0033990D01*
X0266682Y0031591D02*
X0292000Y0031591D01*
X0292000Y0029193D02*
X0264284Y0029193D01*
X0261885Y0026794D02*
X0292000Y0026794D01*
X0292000Y0024396D02*
X0259487Y0024396D01*
X0257088Y0021997D02*
X0292000Y0021997D01*
X0292000Y0019599D02*
X0254690Y0019599D01*
X0251703Y0026794D02*
X0075800Y0026794D01*
X0075800Y0029193D02*
X0105116Y0029193D01*
X0108103Y0036388D02*
X0110254Y0036388D01*
X0110254Y0038787D02*
X0091168Y0038787D01*
X0091168Y0041185D02*
X0110254Y0041185D01*
X0110254Y0043584D02*
X0091125Y0043584D01*
X0098892Y0050779D02*
X0007400Y0050779D01*
X0007400Y0048381D02*
X0110254Y0048381D01*
X0110254Y0045982D02*
X0007400Y0045982D01*
X0007400Y0043584D02*
X0073492Y0043584D01*
X0071094Y0041185D02*
X0007400Y0041185D01*
X0007400Y0038787D02*
X0068961Y0038787D01*
X0068600Y0036388D02*
X0007400Y0036388D01*
X0007400Y0033990D02*
X0068600Y0033990D01*
X0068600Y0031591D02*
X0007400Y0031591D01*
X0007400Y0029193D02*
X0068600Y0029193D01*
X0068600Y0026794D02*
X0007400Y0026794D01*
X0007400Y0024396D02*
X0068600Y0024396D01*
X0068600Y0021997D02*
X0007400Y0021997D01*
X0007400Y0019599D02*
X0069710Y0019599D01*
X0075800Y0031591D02*
X0083231Y0031591D01*
X0083231Y0033990D02*
X0075800Y0033990D01*
X0076479Y0036388D02*
X0083231Y0036388D01*
X0098600Y0053178D02*
X0007400Y0053178D01*
X0007400Y0055576D02*
X0098600Y0055576D01*
X0084876Y0069967D02*
X0034524Y0069967D01*
X0036922Y0067569D02*
X0082478Y0067569D01*
X0079200Y0079561D02*
X0075200Y0079561D01*
X0075800Y0081960D02*
X0078600Y0081960D01*
X0079200Y0084358D02*
X0075200Y0084358D01*
X0069200Y0084358D02*
X0020800Y0084358D01*
X0020800Y0086757D02*
X0081666Y0086757D01*
X0083600Y0089155D02*
X0020800Y0089155D01*
X0020800Y0091554D02*
X0083600Y0091554D01*
X0083600Y0093952D02*
X0020800Y0093952D01*
X0020800Y0096351D02*
X0083600Y0096351D01*
X0083600Y0098749D02*
X0020800Y0098749D01*
X0020800Y0101148D02*
X0083600Y0101148D01*
X0066869Y0081960D02*
X0022531Y0081960D01*
X0007400Y0017200D02*
X0292000Y0017200D01*
X0292000Y0014801D02*
X0007400Y0014801D01*
X0007400Y0012403D02*
X0292000Y0012403D01*
X0292000Y0010004D02*
X0007400Y0010004D01*
X0007400Y0007606D02*
X0292000Y0007606D01*
X0292000Y0007400D02*
X0007400Y0007400D01*
X0007400Y0337000D01*
X0292000Y0337000D01*
X0292000Y0007400D01*
X0165337Y0122734D02*
X0141757Y0122734D01*
X0118161Y0101148D02*
X0117454Y0101148D01*
X0117454Y0098749D02*
X0121123Y0098749D01*
X0200800Y0161111D02*
X0248600Y0161111D01*
X0248600Y0163509D02*
X0200800Y0163509D01*
X0200800Y0165908D02*
X0248600Y0165908D01*
X0248600Y0168306D02*
X0200800Y0168306D01*
X0200800Y0170705D02*
X0248600Y0170705D01*
X0250274Y0180299D02*
X0200800Y0180299D01*
X0200800Y0182697D02*
X0218093Y0182697D01*
X0218093Y0185096D02*
X0200800Y0185096D01*
X0200800Y0187494D02*
X0218218Y0187494D01*
X0218624Y0177900D02*
X0200800Y0177900D01*
X0200800Y0175502D02*
X0218093Y0175502D01*
X0218093Y0173103D02*
X0200800Y0173103D01*
X0193600Y0194690D02*
X0176937Y0194690D01*
X0176937Y0197088D02*
X0193600Y0197088D01*
X0244744Y0254653D02*
X0264688Y0254653D01*
X0251351Y0271442D02*
X0201533Y0271442D01*
X0183600Y0307420D02*
X0007400Y0307420D01*
X0007400Y0309818D02*
X0183600Y0309818D01*
X0183600Y0312217D02*
X0007400Y0312217D01*
X0007400Y0314615D02*
X0183600Y0314615D01*
X0183600Y0317014D02*
X0007400Y0317014D01*
X0007400Y0319412D02*
X0184321Y0319412D01*
X0186720Y0321811D02*
X0007400Y0321811D01*
X0007400Y0324209D02*
X0189118Y0324209D01*
X0191517Y0326608D02*
X0007400Y0326608D01*
X0007400Y0329006D02*
X0193915Y0329006D01*
X0196314Y0331405D02*
X0007400Y0331405D01*
X0007400Y0333803D02*
X0198712Y0333803D01*
X0292000Y0336202D02*
X0007400Y0336202D01*
X0038691Y0278600D02*
X0035800Y0275709D01*
X0035800Y0230800D01*
X0040491Y0230800D01*
X0040860Y0231168D01*
X0046847Y0231168D01*
X0046946Y0231069D01*
X0046946Y0278331D01*
X0046847Y0278231D01*
X0040860Y0278231D01*
X0040491Y0278600D01*
X0038691Y0278600D01*
X0036330Y0276239D02*
X0046946Y0276239D01*
X0046946Y0273841D02*
X0035800Y0273841D01*
X0035800Y0271442D02*
X0046946Y0271442D01*
X0046946Y0269044D02*
X0035800Y0269044D01*
X0035800Y0266645D02*
X0046946Y0266645D01*
X0046946Y0264247D02*
X0035800Y0264247D01*
X0035800Y0261848D02*
X0046946Y0261848D01*
X0046946Y0259450D02*
X0035800Y0259450D01*
X0035800Y0257051D02*
X0046946Y0257051D01*
X0046946Y0254653D02*
X0035800Y0254653D01*
X0035800Y0252254D02*
X0046946Y0252254D01*
X0046946Y0249856D02*
X0035800Y0249856D01*
X0035800Y0247457D02*
X0046946Y0247457D01*
X0046946Y0245059D02*
X0035800Y0245059D01*
X0035800Y0242660D02*
X0046946Y0242660D01*
X0046946Y0240262D02*
X0035800Y0240262D01*
X0035800Y0237863D02*
X0046946Y0237863D01*
X0046946Y0235465D02*
X0035800Y0235465D01*
X0035800Y0233066D02*
X0046946Y0233066D01*
X0054146Y0254653D02*
X0054561Y0254653D01*
X0054146Y0257051D02*
X0056960Y0257051D01*
X0059358Y0259450D02*
X0054146Y0259450D01*
X0054146Y0261848D02*
X0061757Y0261848D01*
X0064156Y0264247D02*
X0054146Y0264247D01*
X0054146Y0266645D02*
X0066554Y0266645D01*
X0067825Y0269044D02*
X0054146Y0269044D01*
X0054146Y0271442D02*
X0068864Y0271442D01*
M02*
