G75*
%MOIN*%
%OFA0B0*%
%FSLAX25Y25*%
%IPPOS*%
%LPD*%
%AMOC8*
5,1,8,0,0,1.08239X$1,22.5*
%
%ADD10R,0.04750X0.04750*%
%ADD11C,0.03200*%
D10*
X0042200Y0077200D03*
X0127200Y0062200D03*
X0132200Y0042200D03*
X0167200Y0087200D03*
X0142200Y0102200D03*
X0147200Y0132200D03*
X0142200Y0142200D03*
X0187200Y0127200D03*
X0197200Y0137200D03*
X0142200Y0197200D03*
X0142200Y0207200D03*
X0107200Y0197200D03*
X0067200Y0217200D03*
X0072200Y0267200D03*
X0127200Y0242200D03*
X0252200Y0237200D03*
X0257200Y0292200D03*
X0287200Y0292200D03*
D11*
X0257200Y0292200D01*
X0232200Y0297200D02*
X0232200Y0257200D01*
X0252200Y0237200D01*
X0212200Y0237200D02*
X0187200Y0262200D01*
X0092200Y0262200D01*
X0092200Y0212200D01*
X0107200Y0197200D01*
X0127200Y0197200D02*
X0142200Y0207200D01*
X0142200Y0197200D02*
X0142200Y0157200D01*
X0147200Y0152200D01*
X0147200Y0147200D01*
X0152200Y0142200D01*
X0152200Y0137200D01*
X0147200Y0132200D01*
X0142200Y0142200D02*
X0142200Y0102200D01*
X0167200Y0087200D02*
X0187200Y0107200D01*
X0187200Y0127200D01*
X0197200Y0137200D02*
X0192200Y0142200D01*
X0192200Y0232200D01*
X0182200Y0242200D01*
X0127200Y0242200D01*
X0127200Y0197200D02*
X0127200Y0062200D01*
X0132200Y0042200D02*
X0157200Y0042200D01*
X0162200Y0047200D01*
X0207200Y0047200D01*
X0212200Y0052200D01*
X0212200Y0237200D01*
X0232200Y0297200D02*
X0212200Y0317200D01*
X0082200Y0317200D01*
X0072200Y0307200D01*
X0072200Y0267200D01*
X0067200Y0217200D02*
X0067200Y0142200D01*
X0037200Y0112200D01*
X0037200Y0082200D01*
X0042200Y0077200D01*
M02*
